<?xml version="1.0" encoding="UTF-8" standalone="no"?>
<svg
   xmlns:dc="http://purl.org/dc/elements/1.1/"
   xmlns:cc="http://creativecommons.org/ns#"
   xmlns:rdf="http://www.w3.org/1999/02/22-rdf-syntax-ns#"
   xmlns:svg="http://www.w3.org/2000/svg"
   xmlns="http://www.w3.org/2000/svg"
   viewBox="0 0 1440 1440"
   height="1440"
   width="1440"
   xml:space="preserve"
   id="svg2"
   version="1.1"><metadata
     id="metadata8"><rdf:RDF><cc:Work
         rdf:about=""><dc:format>image/svg+xml</dc:format><dc:type
           rdf:resource="http://purl.org/dc/dcmitype/StillImage" /></cc:Work></rdf:RDF></metadata><defs
     id="defs6"><clipPath
       id="clipPath18"
       clipPathUnits="userSpaceOnUse"><path
         id="path16"
         d="M 0,1080 H 1080 V 0 H 0 Z" /></clipPath></defs><g
     transform="matrix(1.3333333,0,0,-1.3333333,0,1440)"
     id="g10"><g
       id="g12"><g
         clip-path="url(#clipPath18)"
         id="g14"><g
           transform="translate(577.3584,584.0469)"
           id="g20"><path
             id="path22"
             style="fill:#04358c;fill-opacity:1;fill-rule:nonzero;stroke:none"
             d="m 0,0 -21.36,-58.685 h -179.878 v 8.32 c 26.532,24.283 49.09,46.205 67.679,65.767 18.584,19.562 33.277,37.061 44.07,52.502 21.585,30.579 32.378,58.533 32.378,83.867 0,9.591 -1.613,18.472 -4.834,26.645 -3.226,8.167 -7.572,15.177 -13.042,21.023 -5.474,5.846 -11.882,10.416 -19.224,13.715 -7.347,3.295 -15.065,4.947 -23.159,4.947 -7.498,0 -14.654,-1.09 -21.473,-3.26 -6.824,-2.175 -13.119,-5.436 -18.887,-9.781 -5.772,-4.35 -10.905,-9.747 -15.402,-16.189 -4.497,-6.447 -8.173,-13.94 -11.017,-22.485 h -8.32 c 1.946,13.941 5.397,26.229 10.343,36.875 4.947,10.641 11.165,19.635 18.662,26.982 7.494,7.341 16.111,12.889 25.858,16.638 9.742,3.744 20.46,5.621 32.153,5.621 12.288,0 23.755,-2.174 34.401,-6.52 10.641,-4.35 19.821,-10.196 27.544,-17.538 7.718,-7.347 13.789,-15.852 18.212,-25.52 4.419,-9.669 6.633,-19.826 6.633,-30.467 0,-15.441 -3.597,-30.882 -10.792,-46.318 -10.944,-24.137 -28.932,-49.843 -53.963,-77.122 -18.741,-20.539 -33.918,-36.914 -45.532,-49.129 -11.618,-12.22 -19.752,-20.427 -24.396,-24.621 h 79.596 c 10.04,0 18.511,0.225 25.408,0.674 6.892,0.45 12.738,1.536 17.537,3.261 4.796,1.72 8.916,4.194 12.368,7.42 3.446,3.221 6.818,7.679 10.118,13.378 z" /></g><g
           transform="translate(704.9854,411.6846)"
           id="g24"><path
             id="path26"
             style="fill:#04358c;fill-opacity:1;fill-rule:nonzero;stroke:none"
             d="m 0,0 -21.361,-58.685 h -179.877 v 8.32 c 26.532,24.283 49.09,46.206 67.678,65.767 18.585,19.562 33.278,37.061 44.071,52.502 21.585,30.579 32.378,58.534 32.378,83.867 0,9.591 -1.614,18.472 -4.834,26.645 -3.227,8.167 -7.572,15.177 -13.041,21.023 -5.475,5.846 -11.883,10.416 -19.225,13.716 -7.347,3.294 -15.064,4.946 -23.159,4.946 -7.498,0 -14.654,-1.09 -21.473,-3.26 -6.823,-2.175 -13.119,-5.435 -18.887,-9.781 -5.773,-4.35 -10.905,-9.747 -15.402,-16.189 -4.497,-6.447 -8.173,-13.94 -11.017,-22.484 h -8.32 c 1.946,13.94 5.396,26.229 10.343,36.874 4.947,10.641 11.165,19.635 18.662,26.982 7.493,7.342 16.111,12.889 25.858,16.638 9.742,3.745 20.46,5.621 32.153,5.621 12.288,0 23.756,-2.174 34.401,-6.52 10.641,-4.35 19.821,-10.196 27.544,-17.538 7.718,-7.346 13.789,-15.852 18.212,-25.52 4.419,-9.668 6.633,-19.825 6.633,-30.466 0,-15.441 -3.598,-30.883 -10.792,-46.319 -10.944,-24.136 -28.932,-49.842 -53.963,-77.122 -18.74,-20.539 -33.918,-36.914 -45.532,-49.129 -11.618,-12.22 -19.752,-20.427 -24.396,-24.62 h 79.596 c 10.04,0 18.511,0.224 25.407,0.673 6.893,0.451 12.739,1.536 17.538,3.261 4.796,1.721 8.916,4.194 12.368,7.42 3.445,3.221 6.818,7.679 10.118,13.378 z" /></g><g
           transform="translate(366.6094,284.2227)"
           id="g28"><path
             id="path30"
             style="fill:#04358c;fill-opacity:1;fill-rule:nonzero;stroke:none"
             d="m 0,0 h 18.086 v 11.139 c 0,0.919 -0.019,1.665 -0.057,2.239 -0.038,0.574 -0.11,1.048 -0.216,1.421 -0.105,0.373 -0.263,0.67 -0.473,0.889 -0.211,0.221 -0.488,0.426 -0.833,0.618 -0.842,0.46 -1.713,0.689 -2.612,0.689 h -1.378 v 1.063 H 29.196 L 29.167,16.995 H 27.79 c -0.364,0 -0.747,-0.038 -1.149,-0.115 -0.402,-0.076 -0.785,-0.2 -1.148,-0.373 -0.364,-0.172 -0.684,-0.388 -0.962,-0.646 -0.277,-0.258 -0.483,-0.569 -0.617,-0.933 -0.21,-0.631 -0.316,-1.895 -0.316,-3.789 v -25.12 c 0,-0.918 0.019,-1.665 0.058,-2.24 0.038,-0.574 0.11,-1.048 0.215,-1.421 0.105,-0.373 0.258,-0.665 0.459,-0.876 0.201,-0.21 0.474,-0.411 0.818,-0.602 0.823,-0.459 1.704,-0.689 2.642,-0.689 h 1.377 v -1.062 h -16.65 v 1.062 h 1.378 c 1.569,0 2.727,0.469 3.474,1.407 0.478,0.593 0.717,2.067 0.717,4.421 V -2.125 H 0 v -11.856 c 0,-0.918 0.019,-1.665 0.058,-2.24 0.038,-0.574 0.109,-1.043 0.215,-1.406 0.105,-0.364 0.263,-0.655 0.474,-0.876 0.21,-0.22 0.487,-0.426 0.832,-0.617 0.823,-0.459 1.694,-0.689 2.612,-0.689 h 1.407 v -1.062 h -16.68 v 1.062 h 1.378 c 1.627,0 2.795,0.469 3.503,1.407 0.459,0.593 0.689,2.067 0.689,4.421 v 25.12 c 0,0.919 -0.019,1.665 -0.057,2.239 -0.039,0.574 -0.111,1.048 -0.216,1.421 -0.105,0.373 -0.258,0.67 -0.459,0.889 -0.201,0.221 -0.474,0.426 -0.818,0.618 -0.842,0.46 -1.723,0.689 -2.642,0.689 h -1.378 v 1.063 H 5.598 V 16.995 H 4.191 C 3.809,16.995 3.421,16.957 3.029,16.88 2.636,16.804 2.263,16.68 1.909,16.507 1.555,16.335 1.239,16.119 0.962,15.861 0.684,15.603 0.479,15.292 0.345,14.928 0.115,14.315 0,13.053 0,11.139 Z" /></g><g
           transform="translate(413.7197,269.0068)"
           id="g32"><path
             id="path34"
             style="fill:#04358c;fill-opacity:1;fill-rule:nonzero;stroke:none"
             d="M 0,0 V 10.02 C -1.455,9.445 -2.646,8.957 -3.574,8.556 -4.502,8.153 -5.177,7.828 -5.598,7.579 -7.11,6.718 -8.191,5.833 -8.842,4.924 c -0.651,-0.909 -0.976,-1.909 -0.976,-3 0,-0.69 0.11,-1.325 0.33,-1.909 0.22,-0.584 0.517,-1.091 0.89,-1.522 0.373,-0.43 0.808,-0.765 1.306,-1.005 0.498,-0.239 1.014,-0.359 1.55,-0.359 1.455,0 3.369,0.957 5.742,2.871 m 0,-1.866 c -2.699,-2.105 -4.393,-3.311 -5.082,-3.617 -1.014,-0.479 -2.114,-0.718 -3.301,-0.718 -0.899,0 -1.732,0.163 -2.497,0.488 -0.766,0.325 -1.426,0.785 -1.981,1.378 -0.556,0.594 -0.991,1.307 -1.306,2.139 -0.316,0.833 -0.474,1.756 -0.474,2.77 0,0.746 0.1,1.436 0.301,2.068 0.201,0.63 0.503,1.229 0.904,1.794 0.402,0.564 0.915,1.105 1.537,1.622 0.621,0.516 1.354,1.023 2.195,1.521 1.972,1.168 5.206,2.565 9.704,4.192 v 1.033 c 0,1.321 -0.11,2.422 -0.33,3.301 -0.22,0.881 -0.536,1.584 -0.947,2.111 -0.412,0.526 -0.924,0.899 -1.536,1.119 -0.613,0.221 -1.302,0.33 -2.067,0.33 -0.613,0 -1.163,-0.091 -1.651,-0.272 -0.488,-0.182 -0.905,-0.421 -1.249,-0.718 -0.345,-0.297 -0.608,-0.641 -0.789,-1.033 -0.182,-0.393 -0.273,-0.79 -0.273,-1.192 l 0.057,-1.665 c 0,-0.881 -0.225,-1.559 -0.674,-2.038 -0.45,-0.478 -1.039,-0.718 -1.766,-0.718 -0.708,0 -1.287,0.248 -1.737,0.746 -0.45,0.498 -0.675,1.177 -0.675,2.038 0,0.804 0.216,1.599 0.646,2.383 0.431,0.785 1.053,1.493 1.866,2.125 0.814,0.631 1.819,1.139 3.015,1.522 1.196,0.383 2.56,0.574 4.091,0.574 2.028,0 3.751,-0.297 5.167,-0.891 1.416,-0.592 2.44,-1.617 3.072,-3.071 0.344,-0.843 0.517,-2.526 0.517,-5.053 V 3.474 c 0,-1.263 0.014,-2.278 0.043,-3.043 0.029,-0.766 0.062,-1.292 0.1,-1.579 0.096,-0.555 0.254,-0.928 0.474,-1.12 0.22,-0.191 0.474,-0.287 0.761,-0.287 0.191,0 0.373,0.029 0.545,0.086 0.173,0.058 0.374,0.172 0.603,0.345 0.23,0.172 0.498,0.406 0.804,0.703 0.306,0.297 0.699,0.685 1.177,1.163 v -1.608 c -2.162,-2.87 -4.21,-4.306 -6.143,-4.306 -0.919,0 -1.665,0.325 -2.24,0.976 C 0.287,-4.545 0,-3.436 0,-1.866" /></g><g
           transform="translate(432.5811,284.8535)"
           id="g36"><path
             id="path38"
             style="fill:#04358c;fill-opacity:1;fill-rule:nonzero;stroke:none"
             d="m 0,0 c 3.082,3.714 6.019,5.57 8.813,5.57 0.977,0 1.876,-0.163 2.699,-0.488 0.823,-0.325 1.541,-0.871 2.153,-1.637 0.612,-0.765 1.091,-1.779 1.436,-3.043 0.344,-1.262 0.516,-2.841 0.516,-4.737 V -15.56 c 0,-1.128 0.063,-2.018 0.187,-2.669 0.124,-0.651 0.34,-1.144 0.646,-1.479 0.306,-0.335 0.717,-0.545 1.234,-0.632 0.517,-0.086 1.168,-0.129 1.952,-0.129 v -1.033 H 6.631 v 1.033 h 0.546 c 0.861,0 1.536,0.077 2.024,0.23 0.488,0.153 0.857,0.417 1.105,0.79 0.249,0.373 0.407,0.875 0.474,1.507 0.067,0.631 0.1,1.425 0.1,2.382 v 10.766 c 0,2.393 -0.311,4.129 -0.933,5.211 C 9.325,1.498 8.277,2.039 6.804,2.039 4.526,2.039 2.258,0.795 0,-1.693 V -15.56 c 0,-1.741 0.105,-2.841 0.316,-3.301 0.134,-0.287 0.282,-0.535 0.445,-0.746 0.162,-0.21 0.383,-0.378 0.66,-0.502 0.278,-0.125 0.641,-0.216 1.091,-0.274 0.45,-0.056 1.038,-0.086 1.765,-0.086 v -1.033 H -8.728 v 1.033 h 0.575 c 0.689,0 1.254,0.077 1.694,0.23 0.44,0.153 0.789,0.422 1.047,0.804 0.259,0.382 0.436,0.885 0.532,1.507 0.095,0.622 0.143,1.411 0.143,2.368 v 9.761 c 0,3.12 -0.076,5.043 -0.23,5.771 -0.134,0.689 -0.349,1.158 -0.645,1.407 -0.297,0.248 -0.694,0.373 -1.192,0.373 -0.536,0 -1.177,-0.144 -1.924,-0.431 l -0.43,1.033 7.924,3.216 H 0 Z" /></g><g
           transform="translate(466.2847,288.5576)"
           id="g40"><path
             id="path42"
             style="fill:#04358c;fill-opacity:1;fill-rule:nonzero;stroke:none"
             d="m 0,0 c -0.842,0 -1.651,-0.178 -2.426,-0.531 -0.775,-0.355 -1.464,-0.929 -2.067,-1.723 -0.603,-0.794 -1.086,-1.818 -1.45,-3.071 -0.363,-1.254 -0.545,-2.78 -0.545,-4.579 0,-1.857 0.196,-3.637 0.588,-5.34 0.393,-1.703 0.948,-3.201 1.666,-4.493 0.717,-1.292 1.588,-2.321 2.612,-3.086 1.024,-0.766 2.167,-1.149 3.431,-1.149 0.918,0 1.765,0.177 2.54,0.532 0.776,0.353 1.45,0.927 2.024,1.722 0.574,0.794 1.024,1.842 1.349,3.144 0.326,1.301 0.488,2.899 0.488,4.794 0,1.894 -0.181,3.675 -0.545,5.34 C 7.301,-6.775 6.77,-5.316 6.072,-4.062 5.373,-2.809 4.512,-1.818 3.488,-1.091 2.464,-0.364 1.301,0 0,0 m 0.89,1.866 c 1.856,0 3.56,-0.364 5.11,-1.092 1.55,-0.726 2.885,-1.703 4.005,-2.927 1.12,-1.225 1.99,-2.651 2.612,-4.278 0.622,-1.627 0.933,-3.34 0.933,-5.138 0,-1.896 -0.321,-3.709 -0.962,-5.441 -0.641,-1.732 -1.535,-3.268 -2.684,-4.607 -1.148,-1.34 -2.516,-2.407 -4.105,-3.201 -1.589,-0.795 -3.33,-1.192 -5.225,-1.192 -1.856,0 -3.546,0.383 -5.067,1.149 -1.522,0.765 -2.828,1.784 -3.919,3.056 -1.09,1.274 -1.933,2.733 -2.526,4.379 -0.593,1.646 -0.89,3.349 -0.89,5.11 0,1.78 0.306,3.521 0.919,5.225 0.612,1.703 1.478,3.22 2.598,4.55 1.12,1.33 2.459,2.397 4.019,3.201 1.56,0.804 3.287,1.206 5.182,1.206" /></g><g
           transform="translate(490.3994,304.1748)"
           id="g44"><path
             id="path46"
             style="fill:#04358c;fill-opacity:1;fill-rule:nonzero;stroke:none"
             d="M 0,0 C 0.402,0 0.78,-0.077 1.134,-0.229 1.488,-0.383 1.794,-0.589 2.053,-0.847 2.311,-1.105 2.517,-1.412 2.67,-1.766 2.823,-2.12 2.899,-2.498 2.899,-2.899 2.899,-3.302 2.823,-3.68 2.67,-4.033 2.517,-4.388 2.311,-4.699 2.053,-4.967 1.794,-5.234 1.488,-5.445 1.134,-5.599 0.78,-5.751 0.402,-5.828 0,-5.828 c -0.402,0 -0.78,0.077 -1.134,0.229 -0.354,0.154 -0.665,0.365 -0.933,0.632 -0.268,0.268 -0.478,0.579 -0.632,0.934 -0.153,0.353 -0.229,0.731 -0.229,1.134 0,0.401 0.076,0.779 0.229,1.133 0.154,0.354 0.359,0.661 0.618,0.919 0.258,0.258 0.569,0.464 0.933,0.618 C -0.785,-0.077 -0.402,0 0,0 m 2.383,-13.751 v -21.13 c 0,-0.842 0.029,-1.526 0.086,-2.053 0.057,-0.526 0.143,-0.952 0.259,-1.277 0.114,-0.325 0.263,-0.569 0.444,-0.732 0.182,-0.162 0.388,-0.311 0.618,-0.445 0.497,-0.268 1.358,-0.402 2.584,-0.402 v -1.033 H -6.402 v 1.033 c 0.651,0 1.182,0.029 1.593,0.086 0.412,0.058 0.747,0.153 1.005,0.287 0.259,0.135 0.46,0.302 0.603,0.503 0.144,0.201 0.283,0.444 0.416,0.731 0.268,0.594 0.402,1.695 0.402,3.302 v 10.134 c 0,1.665 -0.029,2.976 -0.086,3.934 -0.057,0.957 -0.158,1.674 -0.302,2.153 -0.143,0.478 -0.354,0.779 -0.631,0.904 -0.277,0.124 -0.627,0.187 -1.048,0.187 -0.536,0 -1.186,-0.144 -1.952,-0.431 l -0.402,1.033 7.924,3.216 z" /></g><g
           transform="translate(501.3662,253.5615)"
           id="g48"><path
             id="path50"
             style="fill:#04358c;fill-opacity:1;fill-rule:nonzero;stroke:none"
             d="M 0,0 V 1.264 C 0.976,1.589 1.847,2.015 2.612,2.541 3.378,3.067 4.028,3.656 4.564,4.307 5.1,4.957 5.507,5.656 5.785,6.402 6.062,7.148 6.201,7.896 6.201,8.642 6.201,8.929 6.134,9.196 6,9.445 5.866,9.694 5.713,9.818 5.541,9.818 5.483,9.818 5.368,9.775 5.196,9.689 5.024,9.604 4.828,9.508 4.607,9.402 4.387,9.297 4.144,9.201 3.875,9.115 3.607,9.029 3.339,8.986 3.072,8.986 2.134,8.986 1.387,9.264 0.833,9.818 0.277,10.374 0,11.14 0,12.115 c 0,0.479 0.096,0.924 0.287,1.335 0.192,0.411 0.455,0.771 0.789,1.076 0.335,0.307 0.728,0.551 1.177,0.733 0.45,0.181 0.934,0.272 1.45,0.272 0.612,0 1.211,-0.143 1.795,-0.43 0.583,-0.288 1.1,-0.694 1.55,-1.22 0.45,-0.527 0.813,-1.163 1.091,-1.909 C 8.416,11.226 8.555,10.402 8.555,9.503 8.555,8.526 8.387,7.57 8.053,6.632 7.718,5.694 7.201,4.818 6.502,4.005 5.804,3.191 4.918,2.44 3.847,1.752 2.775,1.062 1.493,0.479 0,0" /></g><g
           transform="translate(568.2852,302.2803)"
           id="g52"><path
             id="path54"
             style="fill:#04358c;fill-opacity:1;fill-rule:nonzero;stroke:none"
             d="m 0,0 v -1.062 c -0.823,-0.154 -1.526,-0.374 -2.11,-0.661 -0.584,-0.287 -1.096,-0.66 -1.536,-1.12 -0.44,-0.459 -0.828,-1.01 -1.163,-1.65 -0.335,-0.642 -0.674,-1.373 -1.019,-2.196 l -13.579,-33.129 h -1.062 l -14.584,33.559 c -0.765,1.761 -1.292,2.814 -1.579,3.158 -0.478,0.593 -1.062,1.058 -1.751,1.392 -0.689,0.335 -1.637,0.551 -2.842,0.647 V 0 h 15.904 v -1.062 c -0.918,-0.096 -1.66,-0.22 -2.225,-0.374 -0.564,-0.153 -1,-0.339 -1.306,-0.559 -0.306,-0.221 -0.512,-0.47 -0.617,-0.747 -0.105,-0.278 -0.158,-0.588 -0.158,-0.933 0,-0.976 0.44,-2.469 1.32,-4.478 l 9.905,-22.824 9.186,22.537 c 0.9,2.239 1.35,3.779 1.35,4.622 0,0.592 -0.311,1.153 -0.933,1.679 -0.622,0.526 -1.689,0.885 -3.201,1.077 L -12,0 Z" /></g><g
           transform="translate(577.5293,304.1748)"
           id="g56"><path
             id="path58"
             style="fill:#04358c;fill-opacity:1;fill-rule:nonzero;stroke:none"
             d="M 0,0 C 0.401,0 0.779,-0.077 1.134,-0.229 1.488,-0.383 1.794,-0.589 2.053,-0.847 2.311,-1.105 2.517,-1.412 2.67,-1.766 2.823,-2.12 2.899,-2.498 2.899,-2.899 2.899,-3.302 2.823,-3.68 2.67,-4.033 2.517,-4.388 2.311,-4.699 2.053,-4.967 1.794,-5.234 1.488,-5.445 1.134,-5.599 0.779,-5.751 0.401,-5.828 0,-5.828 c -0.402,0 -0.78,0.077 -1.134,0.229 -0.354,0.154 -0.665,0.365 -0.933,0.632 -0.268,0.268 -0.479,0.579 -0.632,0.934 -0.153,0.353 -0.23,0.731 -0.23,1.134 0,0.401 0.077,0.779 0.23,1.133 0.153,0.354 0.359,0.661 0.618,0.919 0.258,0.258 0.569,0.464 0.933,0.618 C -0.785,-0.077 -0.402,0 0,0 m 2.383,-13.751 v -21.13 c 0,-0.842 0.028,-1.526 0.086,-2.053 0.057,-0.526 0.143,-0.952 0.259,-1.277 0.114,-0.325 0.262,-0.569 0.444,-0.732 0.182,-0.162 0.388,-0.311 0.617,-0.445 0.498,-0.268 1.359,-0.402 2.584,-0.402 v -1.033 H -6.402 v 1.033 c 0.651,0 1.181,0.029 1.593,0.086 0.412,0.058 0.747,0.153 1.005,0.287 0.258,0.135 0.459,0.302 0.603,0.503 0.143,0.201 0.282,0.444 0.416,0.731 0.268,0.594 0.402,1.695 0.402,3.302 v 10.134 c 0,1.665 -0.029,2.976 -0.086,3.934 -0.057,0.957 -0.158,1.674 -0.302,2.153 -0.143,0.478 -0.354,0.779 -0.631,0.904 -0.278,0.124 -0.627,0.187 -1.048,0.187 -0.536,0 -1.187,-0.144 -1.952,-0.431 l -0.402,1.033 7.923,3.216 z" /></g><g
           transform="translate(591.5957,281.4092)"
           id="g60"><path
             id="path62"
             style="fill:#04358c;fill-opacity:1;fill-rule:nonzero;stroke:none"
             d="M 0,0 H 12.173 C 12.097,1.684 11.896,2.871 11.57,3.56 11.092,4.632 10.379,5.474 9.431,6.086 8.483,6.698 7.493,7.005 6.46,7.005 5.675,7.005 4.919,6.847 4.191,6.531 3.465,6.215 2.805,5.756 2.211,5.153 1.618,4.55 1.125,3.818 0.732,2.957 0.34,2.096 0.096,1.109 0,0 m 0,-1.665 c 0,-1.952 0.259,-3.704 0.775,-5.254 0.517,-1.55 1.216,-2.866 2.096,-3.947 0.881,-1.081 1.9,-1.905 3.058,-2.469 1.158,-0.564 2.378,-0.847 3.66,-0.847 1.723,0 3.221,0.474 4.493,1.421 1.272,0.948 2.339,2.57 3.2,4.866 l 0.89,-0.574 c -0.21,-1.282 -0.612,-2.546 -1.205,-3.79 -0.594,-1.244 -1.355,-2.353 -2.282,-3.33 -0.928,-0.975 -2.01,-1.765 -3.245,-2.368 -1.234,-0.604 -2.579,-0.904 -4.033,-0.904 -1.569,0 -3.048,0.32 -4.435,0.962 -1.388,0.64 -2.603,1.549 -3.646,2.726 -1.043,1.178 -1.871,2.604 -2.483,4.278 -0.613,1.674 -0.919,3.555 -0.919,5.641 0,2.277 0.311,4.302 0.932,6.072 0.623,1.77 1.479,3.268 2.571,4.493 1.091,1.225 2.378,2.153 3.86,2.785 1.484,0.632 3.077,0.947 4.78,0.947 1.455,0 2.799,-0.254 4.034,-0.761 1.235,-0.507 2.301,-1.229 3.201,-2.168 0.899,-0.937 1.602,-2.061 2.109,-3.373 0.508,-1.31 0.761,-2.779 0.761,-4.406 z" /></g><g
           transform="translate(620.9062,298.2891)"
           id="g64"><path
             id="path66"
             style="fill:#04358c;fill-opacity:1;fill-rule:nonzero;stroke:none"
             d="M 0,0 V -8.641 H 6.145 V -10.65 H 0 v -17.053 c 0,-0.861 0.067,-1.574 0.201,-2.139 0.134,-0.564 0.317,-1.01 0.546,-1.335 0.23,-0.325 0.502,-0.551 0.818,-0.675 0.316,-0.124 0.665,-0.186 1.048,-0.186 0.631,0 1.244,0.196 1.837,0.589 0.594,0.391 1.053,0.97 1.378,1.736 h 1.12 C 6.604,-30.65 6.187,-31.474 5.699,-32.182 5.211,-32.89 4.68,-33.479 4.105,-33.947 3.531,-34.416 2.919,-34.771 2.269,-35.01 c -0.651,-0.239 -1.302,-0.358 -1.953,-0.358 -0.44,0 -0.885,0.062 -1.335,0.186 -0.45,0.124 -0.871,0.307 -1.263,0.546 -0.392,0.24 -0.751,0.531 -1.076,0.875 -0.326,0.345 -0.584,0.747 -0.776,1.206 -0.401,0.919 -0.602,2.326 -0.602,4.22 v 17.685 h -4.163 v 0.947 c 1.052,0.421 2.129,1.134 3.23,2.139 1.1,1.004 2.081,2.196 2.942,3.574 0.21,0.364 0.474,0.876 0.79,1.536 0.316,0.66 0.665,1.478 1.047,2.454 z" /></g><g
           transform="translate(637.2705,284.8535)"
           id="g68"><path
             id="path70"
             style="fill:#04358c;fill-opacity:1;fill-rule:nonzero;stroke:none"
             d="m 0,0 c 3.081,3.714 6.02,5.57 8.813,5.57 0.976,0 1.876,-0.163 2.699,-0.488 0.823,-0.325 1.541,-0.871 2.153,-1.637 0.612,-0.765 1.091,-1.779 1.436,-3.043 0.344,-1.262 0.516,-2.841 0.516,-4.737 V -15.56 c 0,-1.128 0.063,-2.018 0.187,-2.669 0.125,-0.651 0.34,-1.144 0.646,-1.479 0.306,-0.335 0.718,-0.545 1.235,-0.632 0.516,-0.086 1.167,-0.129 1.952,-0.129 v -1.033 H 6.632 v 1.033 h 0.545 c 0.861,0 1.536,0.077 2.024,0.23 0.488,0.153 0.857,0.417 1.106,0.79 0.248,0.373 0.406,0.875 0.473,1.507 0.067,0.631 0.101,1.425 0.101,2.382 v 10.766 c 0,2.393 -0.312,4.129 -0.934,5.211 C 9.325,1.498 8.277,2.039 6.804,2.039 4.526,2.039 2.259,0.795 0,-1.693 V -15.56 c 0,-1.741 0.105,-2.841 0.315,-3.301 0.134,-0.287 0.283,-0.535 0.446,-0.746 0.163,-0.21 0.383,-0.378 0.66,-0.502 0.277,-0.125 0.642,-0.216 1.091,-0.274 0.45,-0.056 1.038,-0.086 1.765,-0.086 v -1.033 H -8.728 v 1.033 h 0.575 c 0.689,0 1.254,0.077 1.694,0.23 0.439,0.153 0.789,0.422 1.048,0.804 0.258,0.382 0.434,0.885 0.53,1.507 0.096,0.622 0.144,1.411 0.144,2.368 v 9.761 c 0,3.12 -0.076,5.043 -0.23,5.771 -0.134,0.689 -0.348,1.158 -0.645,1.407 -0.297,0.248 -0.695,0.373 -1.192,0.373 -0.536,0 -1.177,-0.144 -1.924,-0.431 l -0.43,1.033 7.924,3.216 H 0 Z" /></g><g
           transform="translate(673.9023,269.0068)"
           id="g72"><path
             id="path74"
             style="fill:#04358c;fill-opacity:1;fill-rule:nonzero;stroke:none"
             d="M 0,0 V 10.02 C -1.455,9.445 -2.646,8.957 -3.574,8.556 -4.503,8.153 -5.177,7.828 -5.599,7.579 -7.11,6.718 -8.191,5.833 -8.843,4.924 c -0.65,-0.909 -0.975,-1.909 -0.975,-3 0,-0.69 0.11,-1.325 0.33,-1.909 0.219,-0.584 0.516,-1.091 0.889,-1.522 0.374,-0.43 0.809,-0.765 1.307,-1.005 0.498,-0.239 1.015,-0.359 1.55,-0.359 1.455,0 3.369,0.957 5.742,2.871 m 0,-1.866 c -2.698,-2.105 -4.393,-3.311 -5.081,-3.617 -1.015,-0.479 -2.115,-0.718 -3.302,-0.718 -0.899,0 -1.732,0.163 -2.498,0.488 -0.765,0.325 -1.426,0.785 -1.98,1.378 -0.555,0.594 -0.991,1.307 -1.307,2.139 -0.315,0.833 -0.474,1.756 -0.474,2.77 0,0.746 0.101,1.436 0.302,2.068 0.201,0.63 0.502,1.229 0.904,1.794 0.402,0.564 0.915,1.105 1.537,1.622 0.622,0.516 1.353,1.023 2.196,1.521 1.971,1.168 5.205,2.565 9.703,4.192 v 1.033 c 0,1.321 -0.11,2.422 -0.33,3.301 -0.221,0.881 -0.536,1.584 -0.947,2.111 -0.412,0.526 -0.924,0.899 -1.536,1.119 -0.613,0.221 -1.302,0.33 -2.068,0.33 -0.612,0 -1.162,-0.091 -1.65,-0.272 -0.489,-0.182 -0.905,-0.421 -1.249,-0.718 -0.345,-0.297 -0.608,-0.641 -0.789,-1.033 -0.182,-0.393 -0.274,-0.79 -0.274,-1.192 l 0.058,-1.665 c 0,-0.881 -0.225,-1.559 -0.675,-2.038 -0.449,-0.478 -1.038,-0.718 -1.765,-0.718 -0.709,0 -1.287,0.248 -1.737,0.746 -0.45,0.498 -0.675,1.177 -0.675,2.038 0,0.804 0.216,1.599 0.647,2.383 0.43,0.785 1.052,1.493 1.865,2.125 0.813,0.631 1.818,1.139 3.015,1.522 1.196,0.383 2.559,0.574 4.09,0.574 2.03,0 3.751,-0.297 5.168,-0.891 1.416,-0.592 2.441,-1.617 3.072,-3.071 0.344,-0.843 0.516,-2.526 0.516,-5.053 V 3.474 c 0,-1.263 0.015,-2.278 0.044,-3.043 0.029,-0.766 0.062,-1.292 0.1,-1.579 0.096,-0.555 0.254,-0.928 0.474,-1.12 0.22,-0.191 0.474,-0.287 0.76,-0.287 0.192,0 0.374,0.029 0.546,0.086 0.172,0.058 0.373,0.172 0.603,0.345 0.23,0.172 0.498,0.406 0.803,0.703 0.307,0.297 0.7,0.685 1.178,1.163 v -1.608 c -2.163,-2.87 -4.211,-4.306 -6.143,-4.306 -0.919,0 -1.665,0.325 -2.24,0.976 C 0.287,-4.545 0,-3.436 0,-1.866" /></g><g
           transform="translate(692.9072,284.8252)"
           id="g76"><path
             id="path78"
             style="fill:#04358c;fill-opacity:1;fill-rule:nonzero;stroke:none"
             d="m 0,0 c 1.914,1.914 3.043,3.015 3.388,3.302 0.861,0.726 1.789,1.292 2.784,1.693 0.995,0.402 1.981,0.604 2.957,0.604 1.665,0 3.086,-0.475 4.264,-1.422 1.176,-0.948 1.965,-2.34 2.368,-4.177 1.971,2.277 3.636,3.78 4.995,4.507 1.359,0.727 2.756,1.092 4.191,1.092 0.957,0 1.857,-0.163 2.699,-0.489 0.842,-0.325 1.574,-0.866 2.196,-1.622 0.622,-0.756 1.115,-1.765 1.478,-3.029 0.365,-1.263 0.546,-2.822 0.546,-4.679 v -11.311 c 0,-0.862 0.024,-1.603 0.071,-2.225 0.048,-0.622 0.197,-1.134 0.446,-1.536 0.249,-0.401 0.641,-0.693 1.177,-0.876 0.536,-0.182 1.292,-0.272 2.268,-0.272 v -1.034 H 22.852 v 1.034 h 0.545 c 0.957,0 1.732,0.153 2.326,0.46 0.592,0.305 1.014,0.86 1.262,1.665 0.077,0.287 0.116,1.214 0.116,2.784 V -4.22 c 0,1.263 -0.096,2.301 -0.288,3.115 -0.191,0.813 -0.473,1.464 -0.846,1.952 -0.373,0.488 -0.828,0.828 -1.364,1.019 -0.536,0.192 -1.158,0.287 -1.866,0.287 -0.517,0 -1.019,-0.057 -1.508,-0.173 -0.488,-0.114 -1,-0.315 -1.536,-0.602 C 19.158,1.091 18.579,0.713 17.957,0.244 17.335,-0.225 16.65,-0.813 15.904,-1.521 l 0.058,-14.01 c 0,-0.938 0.018,-1.67 0.058,-2.197 0.038,-0.526 0.109,-0.927 0.214,-1.205 0.106,-0.278 0.254,-0.483 0.446,-0.617 0.191,-0.135 0.43,-0.287 0.717,-0.46 0.268,-0.153 0.641,-0.262 1.12,-0.33 0.478,-0.066 1.052,-0.1 1.722,-0.1 v -1.034 H 6.947 v 1.034 c 1.033,0 1.842,0.072 2.426,0.215 0.584,0.144 1.01,0.402 1.277,0.775 0.269,0.374 0.431,0.876 0.489,1.508 0.057,0.631 0.086,1.435 0.086,2.411 V -4.22 c 0,1.225 -0.11,2.248 -0.33,3.072 -0.22,0.823 -0.532,1.483 -0.933,1.981 C 9.56,1.33 9.086,1.689 8.541,1.909 7.995,2.129 7.397,2.239 6.746,2.239 6.114,2.239 5.464,2.12 4.794,1.881 4.124,1.642 3.488,1.345 2.885,0.99 2.282,0.637 1.731,0.244 1.234,-0.187 0.736,-0.617 0.325,-1.033 0,-1.436 v -14.095 c 0,-0.9 0.028,-1.613 0.086,-2.139 0.058,-0.526 0.143,-0.947 0.259,-1.263 0.114,-0.316 0.262,-0.55 0.444,-0.704 0.182,-0.152 0.388,-0.296 0.617,-0.43 0.479,-0.248 1.436,-0.373 2.871,-0.373 v -1.034 H -8.728 v 1.034 c 0.881,0 1.584,0.067 2.111,0.201 0.526,0.134 0.928,0.378 1.205,0.732 0.278,0.354 0.46,0.852 0.546,1.492 0.086,0.642 0.129,1.469 0.129,2.484 v 10.048 c 0,1.703 -0.029,3.038 -0.086,4.004 -0.058,0.967 -0.162,1.695 -0.316,2.182 -0.153,0.488 -0.364,0.79 -0.632,0.904 -0.267,0.116 -0.612,0.173 -1.033,0.173 -0.536,0 -1.177,-0.143 -1.924,-0.43 l -0.43,1.033 7.924,3.216 H 0 Z" /></g></g></g></g></svg>