<?xml version="1.0" standalone="no"?>
<!DOCTYPE svg PUBLIC "-//W3C//DTD SVG 20010904//EN"
 "http://www.w3.org/TR/2001/REC-SVG-20010904/DTD/svg10.dtd">
<svg version="1.0" xmlns="http://www.w3.org/2000/svg"
 width="864.000000pt" height="363.000000pt" viewBox="0 0 864.000000 363.000000"
 preserveAspectRatio="xMidYMid meet">
<metadata>
Created by potrace 1.16, written by Peter Selinger 2001-2019
</metadata>
<g transform="translate(0.000000,363.000000) scale(0.100000,-0.100000)"
fill="rgb(1.568627%,20.784314%,54.901961%)" stroke="none">
<path d="M658 3167 c-171 -59 -285 -198 -332 -404 -9 -40 -16 -74 -16 -77 0
-4 13 -6 29 -6 26 0 32 7 59 63 41 89 110 160 190 199 61 30 76 33 162 33 84
0 102 -3 151 -28 113 -55 196 -184 206 -319 13 -181 -78 -392 -275 -638 -41
-52 -187 -206 -324 -343 -192 -191 -248 -253 -248 -272 l0 -25 537 2 538 3 61
170 62 170 -31 3 c-20 2 -33 -2 -40 -13 -22 -39 -70 -84 -110 -101 -37 -17
-78 -19 -377 -22 l-335 -3 85 88 c439 454 591 655 664 875 97 296 -41 566
-333 652 -84 25 -239 21 -323 -7z"/>
<path d="M1500 2170 c-118 -19 -200 -61 -277 -142 -72 -77 -128 -195 -152
-320 l-8 -48 31 0 c29 1 33 6 61 67 37 83 111 160 192 199 52 26 68 29 158 29
90 0 105 -3 153 -28 208 -110 260 -362 132 -644 -44 -96 -143 -241 -253 -368
-89 -103 -423 -441 -494 -500 -24 -19 -33 -35 -33 -56 l0 -29 539 0 538 0 58
163 c32 89 60 168 63 175 3 8 -6 12 -25 12 -22 0 -38 -11 -67 -46 -73 -87 -82
-89 -466 -92 l-335 -3 101 103 c287 291 487 531 576 690 125 223 141 437 45
597 -39 65 -132 153 -196 185 -99 50 -235 73 -341 56z"/>
<path d="M3496 2155 c-295 -75 -455 -389 -327 -643 63 -124 139 -184 537 -420
174 -103 232 -143 271 -186 84 -91 105 -194 59 -291 -94 -201 -386 -242 -623
-88 -101 66 -154 154 -195 321 -22 88 -24 92 -50 92 l-28 0 0 -310 0 -310 29
0 c24 0 29 5 35 32 8 40 33 68 61 68 12 0 96 -21 186 -47 154 -44 171 -47 284
-47 180 0 305 45 417 152 155 148 193 366 96 556 -51 100 -172 191 -508 381
-228 129 -275 161 -330 223 -93 104 -94 211 -3 313 140 155 407 141 565 -29
78 -85 116 -171 153 -344 4 -23 11 -28 35 -28 l30 0 0 311 0 310 -31 -3 c-26
-2 -33 -9 -43 -38 -7 -23 -21 -40 -41 -49 -26 -13 -35 -12 -75 3 -188 72 -213
78 -330 82 -80 2 -133 -1 -174 -11z"/>
<path d="M4794 1883 c-38 -89 -134 -233 -187 -278 -23 -21 -66 -50 -94 -67
-41 -23 -53 -35 -53 -54 0 -24 1 -24 95 -24 l95 0 0 -428 c0 -456 5 -518 46
-589 77 -132 286 -130 404 4 33 38 90 137 90 157 0 3 -13 6 -29 6 -21 0 -34
-9 -52 -34 -30 -44 -72 -69 -118 -69 -51 0 -75 15 -97 60 -18 35 -19 71 -22
466 l-4 427 141 0 141 0 0 50 0 50 -140 0 -140 0 0 195 0 195 -24 0 c-20 0
-28 -11 -52 -67z"/>
<path d="M5755 1589 c-199 -33 -376 -193 -451 -408 -62 -179 -51 -365 33 -540
46 -98 160 -213 253 -258 85 -41 136 -52 240 -53 163 0 279 49 401 170 129
127 189 280 189 480 0 183 -56 326 -175 446 -134 135 -308 194 -490 163z m178
-122 c97 -57 168 -171 209 -333 32 -129 33 -377 1 -479 -45 -144 -119 -213
-236 -222 -85 -7 -148 20 -220 95 -105 111 -156 264 -164 492 -6 160 5 229 53
327 28 58 96 124 146 141 56 19 160 8 211 -21z"/>
<path d="M6710 1529 c-96 -39 -178 -74 -182 -77 -4 -4 -5 -17 -2 -28 5 -20 12
-22 76 -20 66 1 72 -1 92 -27 21 -28 21 -35 21 -451 0 -392 -1 -424 -18 -450
-23 -34 -73 -56 -127 -56 -38 0 -40 -2 -40 -30 l0 -30 310 0 310 0 0 29 c0 26
-3 29 -50 34 -66 8 -107 33 -133 82 -20 38 -21 58 -25 366 -5 365 -9 338 73
454 24 33 55 67 70 75 24 13 30 12 58 -4 141 -84 160 -89 215 -56 60 37 77
123 35 186 -42 65 -156 88 -238 49 -50 -24 -130 -103 -175 -174 l-35 -54 -3
127 -3 126 -27 0 c-15 -1 -106 -33 -202 -71z"/>
<path d="M7950 1590 c-212 -33 -357 -171 -431 -410 -21 -65 -24 -96 -24 -225
0 -129 3 -160 23 -225 63 -201 195 -341 366 -386 76 -21 202 -18 270 6 77 26
173 96 224 162 51 67 110 192 118 252 6 38 4 45 -16 56 -12 6 -23 10 -24 8 -1
-2 -17 -33 -35 -70 -44 -92 -111 -159 -186 -187 -84 -32 -195 -26 -280 14
-146 70 -247 241 -270 463 l-7 62 411 0 411 0 0 48 c-1 141 -85 294 -204 369
-88 56 -228 82 -346 63z m91 -106 c96 -29 157 -114 175 -246 l7 -48 -271 0
-270 0 12 53 c31 129 113 220 223 246 55 13 64 13 124 -5z"/>
</g>
</svg>
