<?xml version="1.0" encoding="UTF-8"?>
<svg xmlns="http://www.w3.org/2000/svg" xmlns:xlink="http://www.w3.org/1999/xlink" width="500pt" height="500pt" viewBox="0 0 500 500" version="1.1">
<g id="surface1">
<path style=" stroke:none;fill-rule:nonzero;fill:rgb(1.568627%,20.784314%,54.901961%);fill-opacity:1;" d="M 267.296875 229.609375 L 257.40625 256.777344 L 174.128906 256.777344 L 174.128906 252.925781 C 186.414062 241.683594 196.855469 231.535156 205.460938 222.476562 C 214.066406 213.421875 220.867188 205.320312 225.867188 198.171875 C 235.859375 184.015625 240.855469 171.074219 240.855469 159.34375 C 240.855469 154.902344 240.109375 150.792969 238.617188 147.007812 C 237.125 143.226562 235.113281 139.980469 232.578125 137.273438 C 230.046875 134.570312 227.078125 132.453125 223.679688 130.925781 C 220.277344 129.398438 216.703125 128.636719 212.957031 128.636719 C 209.484375 128.636719 206.171875 129.140625 203.015625 130.144531 C 199.855469 131.152344 196.941406 132.660156 194.273438 134.671875 C 191.601562 136.6875 189.222656 139.183594 187.140625 142.167969 C 185.058594 145.152344 183.359375 148.621094 182.042969 152.578125 L 178.191406 152.578125 C 179.089844 146.125 180.6875 140.433594 182.976562 135.503906 C 185.269531 130.578125 188.148438 126.414062 191.617188 123.015625 C 195.085938 119.617188 199.078125 117.046875 203.589844 115.3125 C 208.097656 113.578125 213.0625 112.707031 218.476562 112.707031 C 224.164062 112.707031 229.472656 113.714844 234.402344 115.726562 C 239.328125 117.742188 243.578125 120.449219 247.152344 123.847656 C 250.726562 127.25 253.535156 131.1875 255.585938 135.660156 C 257.628906 140.136719 258.65625 144.839844 258.65625 149.765625 C 258.65625 156.914062 256.988281 164.0625 253.660156 171.210938 C 248.59375 182.386719 240.265625 194.285156 228.675781 206.914062 C 220 216.421875 212.972656 224.003906 207.597656 229.660156 C 202.21875 235.316406 198.453125 239.117188 196.300781 241.058594 L 233.152344 241.058594 C 237.800781 241.058594 241.722656 240.953125 244.914062 240.746094 C 248.105469 240.539062 250.8125 240.035156 253.035156 239.238281 C 255.253906 238.441406 257.160156 237.296875 258.761719 235.800781 C 260.355469 234.308594 261.917969 232.246094 263.445312 229.609375 Z M 267.296875 229.609375 "/>
<path style=" stroke:none;fill-rule:nonzero;fill:rgb(1.568627%,20.784314%,54.901961%);fill-opacity:1;" d="M 326.382812 309.40625 L 316.492188 336.574219 L 233.214844 336.574219 L 233.214844 332.722656 C 245.5 321.480469 255.941406 311.332031 264.546875 302.273438 C 273.152344 293.21875 279.957031 285.117188 284.953125 277.96875 C 294.945312 263.8125 299.941406 250.871094 299.941406 239.140625 C 299.941406 234.699219 299.195312 230.589844 297.703125 226.804688 C 296.210938 223.023438 294.199219 219.777344 291.667969 217.074219 C 289.132812 214.367188 286.164062 212.25 282.765625 210.722656 C 279.363281 209.199219 275.792969 208.433594 272.042969 208.433594 C 268.574219 208.433594 265.261719 208.9375 262.101562 209.941406 C 258.945312 210.949219 256.03125 212.457031 253.359375 214.46875 C 250.6875 216.484375 248.308594 218.984375 246.226562 221.964844 C 244.144531 224.949219 242.445312 228.417969 241.128906 232.375 L 237.277344 232.375 C 238.175781 225.921875 239.773438 220.230469 242.066406 215.304688 C 244.355469 210.375 247.234375 206.210938 250.703125 202.8125 C 254.171875 199.414062 258.164062 196.84375 262.675781 195.109375 C 267.1875 193.375 272.148438 192.507812 277.5625 192.507812 C 283.25 192.507812 288.558594 193.511719 293.488281 195.523438 C 298.414062 197.539062 302.664062 200.246094 306.238281 203.644531 C 309.8125 207.046875 312.625 210.984375 314.671875 215.460938 C 316.71875 219.933594 317.742188 224.636719 317.742188 229.5625 C 317.742188 236.710938 316.074219 243.859375 312.746094 251.007812 C 307.679688 262.183594 299.351562 274.082031 287.761719 286.710938 C 279.085938 296.222656 272.058594 303.800781 266.683594 309.457031 C 261.304688 315.113281 257.539062 318.914062 255.386719 320.855469 L 292.238281 320.855469 C 296.886719 320.855469 300.808594 320.75 304 320.542969 C 307.191406 320.335938 309.898438 319.832031 312.121094 319.035156 C 314.339844 318.238281 316.25 317.09375 317.847656 315.597656 C 319.441406 314.109375 321.003906 312.042969 322.53125 309.40625 Z M 326.382812 309.40625 "/>
<path style=" stroke:none;fill-rule:nonzero;fill:rgb(1.568627%,20.784314%,54.901961%);fill-opacity:1;" d="M 169.726562 368.414062 L 178.101562 368.414062 L 178.101562 363.257812 C 178.101562 362.832031 178.089844 362.488281 178.074219 362.222656 C 178.054688 361.957031 178.023438 361.738281 177.972656 361.5625 C 177.925781 361.390625 177.851562 361.253906 177.753906 361.152344 C 177.65625 361.050781 177.527344 360.957031 177.367188 360.867188 C 176.980469 360.652344 176.574219 360.546875 176.160156 360.546875 L 175.519531 360.546875 L 175.519531 360.054688 L 183.242188 360.054688 L 183.230469 360.546875 L 182.59375 360.546875 C 182.421875 360.546875 182.246094 360.566406 182.058594 360.601562 C 181.875 360.636719 181.695312 360.691406 181.527344 360.773438 C 181.359375 360.851562 181.210938 360.953125 181.082031 361.074219 C 180.957031 361.191406 180.859375 361.335938 180.796875 361.503906 C 180.699219 361.796875 180.652344 362.382812 180.652344 363.257812 L 180.652344 374.886719 C 180.652344 375.3125 180.660156 375.660156 180.679688 375.925781 C 180.695312 376.191406 180.730469 376.410156 180.777344 376.582031 C 180.828125 376.753906 180.898438 376.890625 180.992188 376.988281 C 181.082031 377.085938 181.210938 377.179688 181.371094 377.265625 C 181.75 377.480469 182.15625 377.585938 182.59375 377.585938 L 183.230469 377.585938 L 183.230469 378.078125 L 175.519531 378.078125 L 175.519531 377.585938 L 176.160156 377.585938 C 176.886719 377.585938 177.421875 377.367188 177.769531 376.933594 C 177.988281 376.660156 178.101562 375.976562 178.101562 374.886719 L 178.101562 369.398438 L 169.726562 369.398438 L 169.726562 374.886719 C 169.726562 375.3125 169.734375 375.660156 169.753906 375.925781 C 169.769531 376.191406 169.804688 376.40625 169.851562 376.574219 C 169.902344 376.746094 169.976562 376.878906 170.074219 376.980469 C 170.167969 377.082031 170.296875 377.179688 170.457031 377.265625 C 170.839844 377.480469 171.242188 377.585938 171.667969 377.585938 L 172.316406 377.585938 L 172.316406 378.078125 L 164.597656 378.078125 L 164.597656 377.585938 L 165.234375 377.585938 C 165.988281 377.585938 166.527344 377.367188 166.855469 376.933594 C 167.066406 376.660156 167.175781 375.976562 167.175781 374.886719 L 167.175781 363.257812 C 167.175781 362.832031 167.164062 362.488281 167.148438 362.222656 C 167.128906 361.957031 167.097656 361.738281 167.046875 361.5625 C 167 361.390625 166.929688 361.253906 166.835938 361.152344 C 166.742188 361.050781 166.617188 360.957031 166.457031 360.867188 C 166.066406 360.652344 165.660156 360.546875 165.234375 360.546875 L 164.597656 360.546875 L 164.597656 360.054688 L 172.316406 360.054688 L 172.316406 360.546875 L 171.667969 360.546875 C 171.488281 360.546875 171.308594 360.566406 171.128906 360.601562 C 170.945312 360.636719 170.773438 360.691406 170.609375 360.773438 C 170.445312 360.851562 170.300781 360.953125 170.171875 361.074219 C 170.042969 361.191406 169.949219 361.335938 169.886719 361.503906 C 169.78125 361.789062 169.726562 362.371094 169.726562 363.257812 Z M 169.726562 368.414062 "/>
<path style=" stroke:none;fill-rule:nonzero;fill:rgb(1.568627%,20.784314%,54.901961%);fill-opacity:1;" d="M 191.535156 375.460938 L 191.535156 370.820312 C 190.863281 371.085938 190.3125 371.3125 189.882812 371.5 C 189.453125 371.683594 189.140625 371.835938 188.945312 371.949219 C 188.246094 372.351562 187.746094 372.757812 187.445312 373.179688 C 187.140625 373.601562 186.992188 374.0625 186.992188 374.570312 C 186.992188 374.886719 187.042969 375.183594 187.144531 375.453125 C 187.246094 375.722656 187.382812 375.957031 187.554688 376.15625 C 187.730469 376.355469 187.929688 376.511719 188.160156 376.621094 C 188.390625 376.734375 188.628906 376.789062 188.878906 376.789062 C 189.550781 376.789062 190.4375 376.347656 191.535156 375.460938 M 191.535156 376.324219 C 190.289062 377.296875 189.503906 377.855469 189.183594 378 C 188.714844 378.21875 188.207031 378.332031 187.65625 378.332031 C 187.238281 378.332031 186.855469 378.253906 186.5 378.105469 C 186.144531 377.953125 185.839844 377.742188 185.582031 377.464844 C 185.324219 377.191406 185.125 376.863281 184.976562 376.476562 C 184.832031 376.089844 184.757812 375.664062 184.757812 375.195312 C 184.757812 374.847656 184.804688 374.527344 184.898438 374.238281 C 184.992188 373.945312 185.132812 373.667969 185.316406 373.40625 C 185.503906 373.144531 185.738281 372.894531 186.027344 372.65625 C 186.316406 372.417969 186.65625 372.179688 187.042969 371.949219 C 187.957031 371.410156 189.453125 370.761719 191.535156 370.011719 L 191.535156 369.53125 C 191.535156 368.921875 191.484375 368.410156 191.382812 368.003906 C 191.28125 367.597656 191.136719 367.269531 190.945312 367.027344 C 190.753906 366.78125 190.519531 366.609375 190.234375 366.507812 C 189.949219 366.40625 189.632812 366.355469 189.277344 366.355469 C 188.992188 366.355469 188.738281 366.398438 188.511719 366.480469 C 188.289062 366.566406 188.09375 366.675781 187.933594 366.8125 C 187.773438 366.953125 187.652344 367.109375 187.570312 367.292969 C 187.484375 367.472656 187.445312 367.65625 187.445312 367.84375 L 187.46875 368.613281 C 187.46875 369.023438 187.367188 369.335938 187.15625 369.558594 C 186.949219 369.78125 186.675781 369.890625 186.339844 369.890625 C 186.011719 369.890625 185.746094 369.777344 185.535156 369.546875 C 185.328125 369.316406 185.222656 369 185.222656 368.601562 C 185.222656 368.230469 185.324219 367.863281 185.523438 367.5 C 185.722656 367.136719 186.011719 366.808594 186.386719 366.515625 C 186.761719 366.222656 187.230469 365.988281 187.78125 365.808594 C 188.335938 365.632812 188.96875 365.542969 189.675781 365.542969 C 190.613281 365.542969 191.414062 365.683594 192.070312 365.957031 C 192.722656 366.230469 193.199219 366.707031 193.492188 367.378906 C 193.648438 367.769531 193.730469 368.546875 193.730469 369.71875 L 193.730469 373.851562 C 193.730469 374.4375 193.738281 374.90625 193.75 375.261719 C 193.761719 375.613281 193.777344 375.859375 193.796875 375.992188 C 193.839844 376.25 193.914062 376.421875 194.015625 376.511719 C 194.117188 376.597656 194.234375 376.644531 194.367188 376.644531 C 194.457031 376.644531 194.539062 376.628906 194.621094 376.601562 C 194.699219 376.574219 194.792969 376.523438 194.898438 376.441406 C 195.007812 376.363281 195.128906 376.253906 195.273438 376.117188 C 195.414062 375.980469 195.59375 375.800781 195.816406 375.578125 L 195.816406 376.324219 C 194.816406 377.652344 193.867188 378.316406 192.972656 378.316406 C 192.546875 378.316406 192.203125 378.167969 191.933594 377.867188 C 191.667969 377.5625 191.535156 377.050781 191.535156 376.324219 "/>
<path style=" stroke:none;fill-rule:nonzero;fill:rgb(1.568627%,20.784314%,54.901961%);fill-opacity:1;" d="M 200.269531 368.125 C 201.695312 366.402344 203.054688 365.542969 204.347656 365.542969 C 204.800781 365.542969 205.21875 365.621094 205.597656 365.769531 C 205.980469 365.921875 206.3125 366.175781 206.59375 366.527344 C 206.878906 366.882812 207.101562 367.351562 207.261719 367.9375 C 207.417969 368.523438 207.5 369.253906 207.5 370.128906 L 207.5 375.328125 C 207.5 375.847656 207.527344 376.261719 207.585938 376.5625 C 207.644531 376.863281 207.742188 377.09375 207.882812 377.246094 C 208.027344 377.402344 208.214844 377.5 208.457031 377.539062 C 208.695312 377.578125 208.996094 377.601562 209.359375 377.601562 L 209.359375 378.078125 L 203.339844 378.078125 L 203.339844 377.601562 L 203.589844 377.601562 C 203.992188 377.601562 204.304688 377.5625 204.527344 377.492188 C 204.753906 377.421875 204.925781 377.300781 205.039062 377.128906 C 205.15625 376.953125 205.230469 376.722656 205.257812 376.429688 C 205.289062 376.136719 205.304688 375.769531 205.304688 375.328125 L 205.304688 370.34375 C 205.304688 369.234375 205.160156 368.429688 204.875 367.929688 C 204.585938 367.429688 204.101562 367.179688 203.417969 367.179688 C 202.363281 367.179688 201.3125 367.753906 200.269531 368.90625 L 200.269531 375.328125 C 200.269531 376.132812 200.316406 376.640625 200.414062 376.855469 C 200.476562 376.988281 200.546875 377.101562 200.621094 377.199219 C 200.695312 377.296875 200.796875 377.375 200.925781 377.433594 C 201.054688 377.492188 201.222656 377.53125 201.433594 377.558594 C 201.640625 377.585938 201.914062 377.601562 202.25 377.601562 L 202.25 378.078125 L 196.226562 378.078125 L 196.226562 377.601562 L 196.496094 377.601562 C 196.8125 377.601562 197.074219 377.5625 197.277344 377.492188 C 197.484375 377.421875 197.644531 377.296875 197.761719 377.121094 C 197.882812 376.945312 197.964844 376.710938 198.007812 376.421875 C 198.054688 376.136719 198.074219 375.769531 198.074219 375.328125 L 198.074219 370.808594 C 198.074219 369.363281 198.039062 368.472656 197.96875 368.136719 C 197.90625 367.816406 197.808594 367.601562 197.671875 367.484375 C 197.535156 367.371094 197.347656 367.3125 197.117188 367.3125 C 196.871094 367.3125 196.574219 367.378906 196.226562 367.511719 L 196.027344 367.035156 L 199.699219 365.542969 L 200.269531 365.542969 Z M 200.269531 368.125 "/>
<path style=" stroke:none;fill-rule:nonzero;fill:rgb(1.568627%,20.784314%,54.901961%);fill-opacity:1;" d="M 215.871094 366.410156 C 215.484375 366.410156 215.109375 366.492188 214.75 366.65625 C 214.390625 366.820312 214.070312 367.085938 213.792969 367.453125 C 213.511719 367.820312 213.289062 368.292969 213.121094 368.875 C 212.953125 369.453125 212.867188 370.160156 212.867188 370.992188 C 212.867188 371.851562 212.960938 372.675781 213.140625 373.464844 C 213.324219 374.253906 213.578125 374.949219 213.914062 375.546875 C 214.246094 376.144531 214.648438 376.621094 215.121094 376.976562 C 215.59375 377.328125 216.125 377.507812 216.710938 377.507812 C 217.136719 377.507812 217.527344 377.425781 217.886719 377.261719 C 218.246094 377.097656 218.558594 376.832031 218.824219 376.464844 C 219.089844 376.09375 219.296875 375.609375 219.449219 375.007812 C 219.597656 374.40625 219.671875 373.664062 219.671875 372.789062 C 219.671875 371.910156 219.589844 371.085938 219.421875 370.316406 C 219.253906 369.546875 219.007812 368.871094 218.683594 368.289062 C 218.359375 367.710938 217.960938 367.25 217.488281 366.914062 C 217.011719 366.578125 216.476562 366.410156 215.871094 366.410156 M 216.285156 365.542969 C 217.144531 365.542969 217.933594 365.714844 218.648438 366.050781 C 219.367188 366.386719 219.984375 366.839844 220.503906 367.40625 C 221.023438 367.972656 221.425781 368.632812 221.714844 369.386719 C 222 370.140625 222.144531 370.933594 222.144531 371.765625 C 222.144531 372.640625 221.996094 373.480469 221.699219 374.285156 C 221.402344 375.085938 220.988281 375.796875 220.457031 376.417969 C 219.925781 377.035156 219.292969 377.53125 218.558594 377.898438 C 217.820312 378.265625 217.015625 378.449219 216.136719 378.449219 C 215.277344 378.449219 214.496094 378.273438 213.792969 377.917969 C 213.085938 377.5625 212.484375 377.09375 211.976562 376.503906 C 211.472656 375.914062 211.082031 375.238281 210.808594 374.476562 C 210.535156 373.714844 210.398438 372.925781 210.398438 372.109375 C 210.398438 371.285156 210.539062 370.480469 210.820312 369.691406 C 211.105469 368.902344 211.507812 368.199219 212.023438 367.585938 C 212.542969 366.96875 213.164062 366.476562 213.886719 366.101562 C 214.609375 365.730469 215.40625 365.542969 216.285156 365.542969 "/>
<path style=" stroke:none;fill-rule:nonzero;fill:rgb(1.568627%,20.784314%,54.901961%);fill-opacity:1;" d="M 227.035156 359.179688 C 227.222656 359.179688 227.398438 359.214844 227.5625 359.285156 C 227.726562 359.355469 227.867188 359.449219 227.988281 359.570312 C 228.105469 359.691406 228.203125 359.832031 228.273438 359.996094 C 228.34375 360.160156 228.378906 360.335938 228.378906 360.519531 C 228.378906 360.707031 228.34375 360.882812 228.273438 361.046875 C 228.203125 361.210938 228.105469 361.355469 227.988281 361.476562 C 227.867188 361.601562 227.726562 361.699219 227.5625 361.769531 C 227.398438 361.839844 227.222656 361.875 227.035156 361.875 C 226.851562 361.875 226.675781 361.839844 226.511719 361.769531 C 226.347656 361.699219 226.203125 361.601562 226.078125 361.476562 C 225.957031 361.355469 225.859375 361.210938 225.789062 361.046875 C 225.714844 360.882812 225.679688 360.707031 225.679688 360.519531 C 225.679688 360.335938 225.714844 360.160156 225.789062 359.996094 C 225.859375 359.832031 225.953125 359.691406 226.074219 359.570312 C 226.191406 359.449219 226.335938 359.355469 226.503906 359.285156 C 226.671875 359.214844 226.851562 359.179688 227.035156 359.179688 M 228.140625 365.542969 L 228.140625 375.328125 C 228.140625 375.714844 228.152344 376.035156 228.179688 376.277344 C 228.207031 376.519531 228.246094 376.71875 228.300781 376.867188 C 228.351562 377.019531 228.421875 377.132812 228.503906 377.207031 C 228.589844 377.28125 228.683594 377.351562 228.792969 377.414062 C 229.019531 377.539062 229.421875 377.601562 229.988281 377.601562 L 229.988281 378.078125 L 224.074219 378.078125 L 224.074219 377.601562 C 224.375 377.601562 224.621094 377.585938 224.808594 377.558594 C 225 377.53125 225.15625 377.488281 225.277344 377.425781 C 225.394531 377.363281 225.488281 377.289062 225.554688 377.195312 C 225.621094 377.101562 225.6875 376.988281 225.746094 376.855469 C 225.871094 376.582031 225.933594 376.070312 225.933594 375.328125 L 225.933594 370.636719 C 225.933594 369.863281 225.921875 369.257812 225.894531 368.8125 C 225.867188 368.371094 225.820312 368.039062 225.753906 367.816406 C 225.6875 367.597656 225.589844 367.457031 225.460938 367.398438 C 225.332031 367.339844 225.171875 367.3125 224.976562 367.3125 C 224.726562 367.3125 224.425781 367.378906 224.074219 367.511719 L 223.886719 367.035156 L 227.554688 365.542969 Z M 228.140625 365.542969 "/>
<path style=" stroke:none;fill-rule:nonzero;fill:rgb(1.568627%,20.784314%,54.901961%);fill-opacity:1;" d="M 232.113281 382.609375 L 232.113281 382.023438 C 232.566406 381.875 232.96875 381.675781 233.324219 381.433594 C 233.679688 381.191406 233.980469 380.917969 234.226562 380.617188 C 234.476562 380.316406 234.664062 379.992188 234.792969 379.648438 C 234.921875 379.300781 234.984375 378.953125 234.984375 378.609375 C 234.984375 378.476562 234.953125 378.351562 234.890625 378.238281 C 234.828125 378.121094 234.757812 378.066406 234.679688 378.066406 C 234.652344 378.066406 234.597656 378.085938 234.519531 378.125 C 234.441406 378.164062 234.347656 378.207031 234.246094 378.257812 C 234.144531 378.304688 234.03125 378.351562 233.90625 378.390625 C 233.785156 378.429688 233.660156 378.449219 233.535156 378.449219 C 233.101562 378.449219 232.757812 378.320312 232.5 378.066406 C 232.242188 377.808594 232.113281 377.453125 232.113281 377 C 232.113281 376.78125 232.160156 376.574219 232.246094 376.382812 C 232.335938 376.191406 232.457031 376.027344 232.613281 375.886719 C 232.765625 375.742188 232.949219 375.628906 233.15625 375.546875 C 233.367188 375.460938 233.589844 375.421875 233.828125 375.421875 C 234.113281 375.421875 234.390625 375.488281 234.660156 375.621094 C 234.929688 375.753906 235.167969 375.941406 235.375 376.183594 C 235.585938 376.429688 235.753906 376.722656 235.882812 377.066406 C 236.011719 377.414062 236.074219 377.792969 236.074219 378.210938 C 236.074219 378.664062 235.996094 379.105469 235.84375 379.539062 C 235.6875 379.972656 235.449219 380.378906 235.125 380.757812 C 234.800781 381.132812 234.390625 381.480469 233.894531 381.800781 C 233.398438 382.117188 232.804688 382.386719 232.113281 382.609375 "/>
<path style=" stroke:none;fill-rule:nonzero;fill:rgb(1.568627%,20.784314%,54.901961%);fill-opacity:1;" d="M 263.09375 360.054688 L 263.09375 360.546875 C 262.714844 360.617188 262.386719 360.71875 262.117188 360.851562 C 261.847656 360.984375 261.609375 361.160156 261.40625 361.371094 C 261.203125 361.585938 261.023438 361.839844 260.867188 362.136719 C 260.714844 362.433594 260.554688 362.769531 260.398438 363.152344 L 254.109375 378.488281 L 253.617188 378.488281 L 246.867188 362.953125 C 246.511719 362.136719 246.269531 361.648438 246.136719 361.492188 C 245.914062 361.214844 245.644531 361 245.324219 360.847656 C 245.007812 360.691406 244.566406 360.589844 244.007812 360.546875 L 244.007812 360.054688 L 251.371094 360.054688 L 251.371094 360.546875 C 250.949219 360.589844 250.605469 360.648438 250.34375 360.71875 C 250.082031 360.792969 249.878906 360.878906 249.738281 360.980469 C 249.597656 361.082031 249.5 361.195312 249.453125 361.324219 C 249.402344 361.453125 249.378906 361.597656 249.378906 361.757812 C 249.378906 362.207031 249.582031 362.898438 249.988281 363.828125 L 254.574219 374.398438 L 258.828125 363.960938 C 259.246094 362.925781 259.453125 362.214844 259.453125 361.824219 C 259.453125 361.550781 259.308594 361.289062 259.019531 361.046875 C 258.734375 360.800781 258.238281 360.636719 257.539062 360.546875 L 257.539062 360.054688 Z M 263.09375 360.054688 "/>
<path style=" stroke:none;fill-rule:nonzero;fill:rgb(1.568627%,20.784314%,54.901961%);fill-opacity:1;" d="M 267.375 359.179688 C 267.558594 359.179688 267.734375 359.214844 267.898438 359.285156 C 268.0625 359.355469 268.207031 359.449219 268.324219 359.570312 C 268.445312 359.691406 268.539062 359.832031 268.609375 359.996094 C 268.679688 360.160156 268.71875 360.335938 268.71875 360.519531 C 268.71875 360.707031 268.679688 360.882812 268.609375 361.046875 C 268.539062 361.210938 268.445312 361.355469 268.324219 361.476562 C 268.207031 361.601562 268.0625 361.699219 267.898438 361.769531 C 267.734375 361.839844 267.558594 361.875 267.375 361.875 C 267.1875 361.875 267.011719 361.839844 266.851562 361.769531 C 266.6875 361.699219 266.542969 361.601562 266.417969 361.476562 C 266.292969 361.355469 266.195312 361.210938 266.125 361.046875 C 266.054688 360.882812 266.019531 360.707031 266.019531 360.519531 C 266.019531 360.335938 266.054688 360.160156 266.125 359.996094 C 266.195312 359.832031 266.292969 359.691406 266.410156 359.570312 C 266.53125 359.449219 266.675781 359.355469 266.84375 359.285156 C 267.011719 359.214844 267.1875 359.179688 267.375 359.179688 M 268.476562 365.542969 L 268.476562 375.328125 C 268.476562 375.714844 268.492188 376.035156 268.519531 376.277344 C 268.542969 376.519531 268.582031 376.71875 268.636719 376.867188 C 268.691406 377.019531 268.757812 377.132812 268.84375 377.207031 C 268.925781 377.28125 269.023438 377.351562 269.128906 377.414062 C 269.359375 377.539062 269.757812 377.601562 270.324219 377.601562 L 270.324219 378.078125 L 264.410156 378.078125 L 264.410156 377.601562 C 264.710938 377.601562 264.957031 377.585938 265.148438 377.558594 C 265.339844 377.53125 265.492188 377.488281 265.613281 377.425781 C 265.734375 377.363281 265.824219 377.289062 265.894531 377.195312 C 265.957031 377.101562 266.023438 376.988281 266.085938 376.855469 C 266.210938 376.582031 266.269531 376.070312 266.269531 375.328125 L 266.269531 370.636719 C 266.269531 369.863281 266.257812 369.257812 266.230469 368.8125 C 266.207031 368.371094 266.160156 368.039062 266.09375 367.816406 C 266.027344 367.597656 265.929688 367.457031 265.800781 367.398438 C 265.671875 367.339844 265.507812 367.3125 265.316406 367.3125 C 265.066406 367.3125 264.765625 367.378906 264.410156 367.511719 L 264.226562 367.035156 L 267.894531 365.542969 Z M 268.476562 365.542969 "/>
<path style=" stroke:none;fill-rule:nonzero;fill:rgb(1.568627%,20.784314%,54.901961%);fill-opacity:1;" d="M 273.886719 369.71875 L 279.523438 369.71875 C 279.488281 368.9375 279.394531 368.390625 279.242188 368.070312 C 279.023438 367.574219 278.691406 367.183594 278.253906 366.898438 C 277.8125 366.617188 277.355469 366.476562 276.878906 366.476562 C 276.515625 366.476562 276.164062 366.546875 275.828125 366.695312 C 275.492188 366.839844 275.183594 367.054688 274.910156 367.332031 C 274.636719 367.613281 274.40625 367.949219 274.226562 368.347656 C 274.042969 368.746094 273.929688 369.203125 273.886719 369.71875 M 273.886719 370.488281 C 273.886719 371.390625 274.007812 372.203125 274.246094 372.921875 C 274.484375 373.640625 274.808594 374.25 275.214844 374.75 C 275.625 375.25 276.09375 375.628906 276.632812 375.890625 C 277.167969 376.152344 277.734375 376.285156 278.328125 376.285156 C 279.125 376.285156 279.816406 376.0625 280.40625 375.625 C 280.996094 375.1875 281.488281 374.4375 281.886719 373.375 L 282.300781 373.640625 C 282.203125 374.230469 282.015625 374.816406 281.742188 375.394531 C 281.46875 375.96875 281.113281 376.484375 280.683594 376.933594 C 280.257812 377.386719 279.753906 377.753906 279.183594 378.03125 C 278.613281 378.3125 277.988281 378.449219 277.316406 378.449219 C 276.589844 378.449219 275.90625 378.300781 275.261719 378.003906 C 274.621094 377.707031 274.058594 377.289062 273.574219 376.742188 C 273.09375 376.195312 272.707031 375.535156 272.425781 374.761719 C 272.140625 373.988281 272 373.117188 272 372.148438 C 272 371.097656 272.144531 370.160156 272.429688 369.339844 C 272.71875 368.519531 273.117188 367.828125 273.621094 367.257812 C 274.125 366.691406 274.722656 366.261719 275.410156 365.96875 C 276.09375 365.675781 276.832031 365.53125 277.621094 365.53125 C 278.296875 365.53125 278.917969 365.648438 279.488281 365.882812 C 280.0625 366.117188 280.554688 366.453125 280.972656 366.886719 C 281.386719 367.320312 281.710938 367.839844 281.949219 368.449219 C 282.183594 369.054688 282.300781 369.734375 282.300781 370.488281 Z M 273.886719 370.488281 "/>
<path style=" stroke:none;fill-rule:nonzero;fill:rgb(1.568627%,20.784314%,54.901961%);fill-opacity:1;" d="M 287.457031 361.902344 L 287.457031 365.902344 L 290.300781 365.902344 L 290.300781 366.832031 L 287.457031 366.832031 L 287.457031 374.730469 C 287.457031 375.128906 287.488281 375.457031 287.550781 375.71875 C 287.613281 375.980469 287.695312 376.1875 287.800781 376.335938 C 287.910156 376.488281 288.035156 376.59375 288.179688 376.648438 C 288.328125 376.707031 288.488281 376.734375 288.667969 376.734375 C 288.957031 376.734375 289.242188 376.644531 289.515625 376.464844 C 289.792969 376.28125 290.003906 376.015625 290.15625 375.660156 L 290.671875 375.660156 C 290.515625 376.09375 290.320312 376.472656 290.09375 376.800781 C 289.867188 377.128906 289.625 377.402344 289.355469 377.621094 C 289.089844 377.835938 288.808594 378 288.507812 378.113281 C 288.207031 378.222656 287.902344 378.277344 287.601562 378.277344 C 287.398438 378.277344 287.191406 378.25 286.984375 378.191406 C 286.777344 378.132812 286.582031 378.050781 286.398438 377.9375 C 286.21875 377.828125 286.050781 377.691406 285.902344 377.535156 C 285.75 377.375 285.632812 377.1875 285.542969 376.976562 C 285.355469 376.550781 285.265625 375.898438 285.265625 375.019531 L 285.265625 366.832031 L 283.335938 366.832031 L 283.335938 366.394531 C 283.824219 366.199219 284.324219 365.871094 284.832031 365.40625 C 285.339844 364.941406 285.796875 364.386719 286.195312 363.75 C 286.292969 363.582031 286.414062 363.34375 286.558594 363.039062 C 286.707031 362.734375 286.867188 362.355469 287.042969 361.902344 Z M 287.457031 361.902344 "/>
<path style=" stroke:none;fill-rule:nonzero;fill:rgb(1.568627%,20.784314%,54.901961%);fill-opacity:1;" d="M 295.03125 368.125 C 296.460938 366.402344 297.820312 365.542969 299.113281 365.542969 C 299.566406 365.542969 299.980469 365.621094 300.363281 365.769531 C 300.742188 365.921875 301.074219 366.175781 301.359375 366.527344 C 301.640625 366.882812 301.863281 367.351562 302.023438 367.9375 C 302.183594 368.523438 302.261719 369.253906 302.261719 370.128906 L 302.261719 375.328125 C 302.261719 375.847656 302.292969 376.261719 302.347656 376.5625 C 302.40625 376.863281 302.507812 377.09375 302.648438 377.246094 C 302.789062 377.402344 302.980469 377.5 303.21875 377.539062 C 303.460938 377.578125 303.761719 377.601562 304.125 377.601562 L 304.125 378.078125 L 298.101562 378.078125 L 298.101562 377.601562 L 298.355469 377.601562 C 298.753906 377.601562 299.066406 377.5625 299.292969 377.492188 C 299.519531 377.421875 299.6875 377.300781 299.804688 377.128906 C 299.917969 376.953125 299.992188 376.722656 300.023438 376.429688 C 300.054688 376.136719 300.070312 375.769531 300.070312 375.328125 L 300.070312 370.34375 C 300.070312 369.234375 299.925781 368.429688 299.636719 367.929688 C 299.351562 367.429688 298.863281 367.179688 298.183594 367.179688 C 297.128906 367.179688 296.078125 367.753906 295.03125 368.90625 L 295.03125 375.328125 C 295.03125 376.132812 295.082031 376.640625 295.179688 376.855469 C 295.242188 376.988281 295.308594 377.101562 295.386719 377.199219 C 295.460938 377.296875 295.5625 377.375 295.691406 377.433594 C 295.820312 377.492188 295.988281 377.53125 296.195312 377.558594 C 296.402344 377.585938 296.675781 377.601562 297.011719 377.601562 L 297.011719 378.078125 L 290.992188 378.078125 L 290.992188 377.601562 L 291.257812 377.601562 C 291.578125 377.601562 291.839844 377.5625 292.042969 377.492188 C 292.246094 377.421875 292.40625 377.296875 292.527344 377.121094 C 292.648438 376.945312 292.726562 376.710938 292.773438 376.421875 C 292.816406 376.136719 292.839844 375.769531 292.839844 375.328125 L 292.839844 370.808594 C 292.839844 369.363281 292.804688 368.472656 292.734375 368.136719 C 292.671875 367.816406 292.570312 367.601562 292.433594 367.484375 C 292.296875 367.371094 292.113281 367.3125 291.882812 367.3125 C 291.632812 367.3125 291.335938 367.378906 290.992188 367.511719 L 290.792969 367.035156 L 294.460938 365.542969 L 295.03125 365.542969 Z M 295.03125 368.125 "/>
<path style=" stroke:none;fill-rule:nonzero;fill:rgb(1.568627%,20.784314%,54.901961%);fill-opacity:1;" d="M 311.992188 375.460938 L 311.992188 370.820312 C 311.316406 371.085938 310.765625 371.3125 310.335938 371.5 C 309.90625 371.683594 309.59375 371.835938 309.398438 371.949219 C 308.699219 372.351562 308.199219 372.757812 307.898438 373.179688 C 307.597656 373.601562 307.445312 374.0625 307.445312 374.570312 C 307.445312 374.886719 307.496094 375.183594 307.597656 375.453125 C 307.699219 375.722656 307.839844 375.957031 308.011719 376.15625 C 308.183594 376.355469 308.386719 376.511719 308.617188 376.621094 C 308.847656 376.734375 309.085938 376.789062 309.332031 376.789062 C 310.007812 376.789062 310.894531 376.347656 311.992188 375.460938 M 311.992188 376.324219 C 310.742188 377.296875 309.957031 377.855469 309.640625 378 C 309.167969 378.21875 308.660156 378.332031 308.109375 378.332031 C 307.695312 378.332031 307.308594 378.253906 306.953125 378.105469 C 306.601562 377.953125 306.292969 377.742188 306.039062 377.464844 C 305.78125 377.191406 305.578125 376.863281 305.433594 376.476562 C 305.285156 376.089844 305.214844 375.664062 305.214844 375.195312 C 305.214844 374.847656 305.261719 374.527344 305.351562 374.238281 C 305.445312 373.945312 305.585938 373.667969 305.769531 373.40625 C 305.957031 373.144531 306.195312 372.894531 306.484375 372.65625 C 306.769531 372.417969 307.109375 372.179688 307.5 371.949219 C 308.414062 371.410156 309.910156 370.761719 311.992188 370.011719 L 311.992188 369.53125 C 311.992188 368.921875 311.941406 368.410156 311.839844 368.003906 C 311.738281 367.597656 311.589844 367.269531 311.402344 367.027344 C 311.210938 366.78125 310.972656 366.609375 310.691406 366.507812 C 310.40625 366.40625 310.085938 366.355469 309.730469 366.355469 C 309.449219 366.355469 309.195312 366.398438 308.96875 366.480469 C 308.742188 366.566406 308.550781 366.675781 308.390625 366.8125 C 308.230469 366.953125 308.109375 367.109375 308.023438 367.292969 C 307.941406 367.472656 307.898438 367.65625 307.898438 367.84375 L 307.925781 368.613281 C 307.925781 369.023438 307.820312 369.335938 307.613281 369.558594 C 307.40625 369.78125 307.132812 369.890625 306.796875 369.890625 C 306.46875 369.890625 306.199219 369.777344 305.992188 369.546875 C 305.78125 369.316406 305.679688 369 305.679688 368.601562 C 305.679688 368.230469 305.777344 367.863281 305.976562 367.5 C 306.175781 367.136719 306.464844 366.808594 306.839844 366.515625 C 307.21875 366.222656 307.683594 365.988281 308.238281 365.808594 C 308.789062 365.632812 309.421875 365.542969 310.128906 365.542969 C 311.070312 365.542969 311.867188 365.683594 312.523438 365.957031 C 313.179688 366.230469 313.652344 366.707031 313.945312 367.378906 C 314.105469 367.769531 314.183594 368.546875 314.183594 369.71875 L 314.183594 373.851562 C 314.183594 374.4375 314.191406 374.90625 314.203125 375.261719 C 314.21875 375.613281 314.234375 375.859375 314.25 375.992188 C 314.296875 376.25 314.367188 376.421875 314.46875 376.511719 C 314.574219 376.597656 314.691406 376.644531 314.824219 376.644531 C 314.910156 376.644531 314.996094 376.628906 315.074219 376.601562 C 315.15625 376.574219 315.246094 376.523438 315.355469 376.441406 C 315.460938 376.363281 315.585938 376.253906 315.726562 376.117188 C 315.867188 375.980469 316.050781 375.800781 316.269531 375.578125 L 316.269531 376.324219 C 315.269531 377.652344 314.320312 378.316406 313.425781 378.316406 C 313.003906 378.316406 312.65625 378.167969 312.390625 377.867188 C 312.125 377.5625 311.992188 377.050781 311.992188 376.324219 "/>
<path style=" stroke:none;fill-rule:nonzero;fill:rgb(1.568627%,20.784314%,54.901961%);fill-opacity:1;" d="M 320.789062 368.136719 C 321.675781 367.25 322.199219 366.742188 322.359375 366.609375 C 322.757812 366.273438 323.1875 366.007812 323.648438 365.824219 C 324.109375 365.636719 324.566406 365.542969 325.015625 365.542969 C 325.789062 365.542969 326.445312 365.765625 326.992188 366.203125 C 327.535156 366.640625 327.902344 367.285156 328.085938 368.136719 C 329 367.082031 329.769531 366.386719 330.398438 366.050781 C 331.027344 365.714844 331.675781 365.542969 332.339844 365.542969 C 332.78125 365.542969 333.199219 365.621094 333.589844 365.769531 C 333.980469 365.921875 334.316406 366.171875 334.605469 366.523438 C 334.894531 366.871094 335.121094 367.339844 335.289062 367.925781 C 335.460938 368.507812 335.542969 369.230469 335.542969 370.089844 L 335.542969 375.328125 C 335.542969 375.726562 335.554688 376.070312 335.574219 376.355469 C 335.597656 376.644531 335.667969 376.882812 335.78125 377.066406 C 335.898438 377.253906 336.078125 377.390625 336.328125 377.472656 C 336.574219 377.558594 336.925781 377.597656 337.378906 377.597656 L 337.378906 378.078125 L 331.371094 378.078125 L 331.371094 377.597656 L 331.621094 377.597656 C 332.066406 377.597656 332.425781 377.527344 332.699219 377.386719 C 332.972656 377.246094 333.167969 376.988281 333.285156 376.617188 C 333.320312 376.484375 333.335938 376.054688 333.335938 375.328125 L 333.335938 370.089844 C 333.335938 369.503906 333.292969 369.023438 333.203125 368.648438 C 333.117188 368.273438 332.984375 367.96875 332.8125 367.746094 C 332.640625 367.519531 332.429688 367.359375 332.179688 367.273438 C 331.933594 367.183594 331.644531 367.140625 331.316406 367.140625 C 331.078125 367.140625 330.84375 367.167969 330.617188 367.21875 C 330.394531 367.273438 330.15625 367.367188 329.90625 367.5 C 329.660156 367.632812 329.390625 367.804688 329.105469 368.023438 C 328.816406 368.242188 328.5 368.511719 328.152344 368.839844 L 328.179688 375.328125 C 328.179688 375.761719 328.1875 376.101562 328.207031 376.34375 C 328.226562 376.585938 328.257812 376.773438 328.304688 376.902344 C 328.355469 377.03125 328.421875 377.125 328.511719 377.1875 C 328.601562 377.25 328.710938 377.320312 328.84375 377.398438 C 328.96875 377.472656 329.140625 377.523438 329.363281 377.554688 C 329.585938 377.582031 329.851562 377.597656 330.160156 377.597656 L 330.160156 378.078125 L 324.007812 378.078125 L 324.007812 377.597656 C 324.484375 377.597656 324.859375 377.566406 325.128906 377.5 C 325.398438 377.433594 325.597656 377.3125 325.722656 377.140625 C 325.84375 376.96875 325.921875 376.734375 325.949219 376.441406 C 325.972656 376.152344 325.988281 375.777344 325.988281 375.328125 L 325.988281 370.089844 C 325.988281 369.523438 325.9375 369.050781 325.835938 368.667969 C 325.734375 368.285156 325.589844 367.980469 325.402344 367.75 C 325.214844 367.519531 324.996094 367.355469 324.746094 367.253906 C 324.492188 367.152344 324.214844 367.101562 323.914062 367.101562 C 323.621094 367.101562 323.320312 367.15625 323.011719 367.265625 C 322.699219 367.375 322.40625 367.515625 322.125 367.679688 C 321.847656 367.839844 321.589844 368.023438 321.363281 368.222656 C 321.132812 368.421875 320.941406 368.613281 320.789062 368.800781 L 320.789062 375.328125 C 320.789062 375.742188 320.804688 376.074219 320.832031 376.316406 C 320.855469 376.5625 320.894531 376.753906 320.949219 376.902344 C 321.003906 377.046875 321.070312 377.15625 321.15625 377.226562 C 321.238281 377.296875 321.335938 377.363281 321.441406 377.425781 C 321.664062 377.542969 322.105469 377.597656 322.769531 377.597656 L 322.769531 378.078125 L 316.75 378.078125 L 316.75 377.597656 C 317.15625 377.597656 317.484375 377.570312 317.726562 377.507812 C 317.96875 377.445312 318.15625 377.332031 318.285156 377.167969 C 318.414062 377.003906 318.496094 376.773438 318.539062 376.476562 C 318.578125 376.179688 318.597656 375.796875 318.597656 375.328125 L 318.597656 370.675781 C 318.597656 369.886719 318.582031 369.269531 318.558594 368.820312 C 318.53125 368.375 318.484375 368.035156 318.410156 367.8125 C 318.339844 367.585938 318.242188 367.445312 318.117188 367.390625 C 317.996094 367.339844 317.835938 367.3125 317.640625 367.3125 C 317.390625 367.3125 317.09375 367.378906 316.75 367.511719 L 316.550781 367.035156 L 320.21875 365.542969 L 320.789062 365.542969 Z M 320.789062 368.136719 "/>
</g>
</svg>
