<?xml version="1.0" encoding="UTF-8" standalone="no"?>
<!DOCTYPE svg PUBLIC "-//W3C//DTD SVG 1.1//EN" "http://www.w3.org/Graphics/SVG/1.1/DTD/svg11.dtd">
<svg xmlns="http://www.w3.org/2000/svg" xmlns:xlink="http://www.w3.org/1999/xlink" version="1.1" width="856pt" height="400pt" viewBox="0 0 856 400">
<g enable-background="new">
<g id="Layer-1" data-name="Layer">
<clipPath id="cp0">
<path transform="matrix(1,0,0,-1,0,400)" d="M 0 400 L 856 400 L 856 0 L 0 0 Z "/>
</clipPath>
<g clip-path="url(#cp0)">
<path transform="matrix(1,0,0,-1,218.8525,187.4292)" d="M 0 0 L -8.443 -23.197 L -79.543 -23.197 L -79.543 -19.908 C -69.056 -10.31 -60.14 -1.645 -52.792 6.088 C -45.446 13.82 -39.639 20.737 -35.373 26.84 C -26.84 38.927 -22.574 49.977 -22.574 59.991 C -22.574 63.781 -23.212 67.292 -24.485 70.522 C -25.76 73.751 -27.478 76.521 -29.64 78.832 C -31.804 81.143 -34.337 82.95 -37.239 84.253 C -40.143 85.556 -43.193 86.209 -46.393 86.209 C -49.357 86.209 -52.186 85.778 -54.88 84.92 C -57.578 84.061 -60.066 82.772 -62.346 81.054 C -64.628 79.334 -66.657 77.202 -68.434 74.655 C -70.211 72.107 -71.665 69.145 -72.789 65.768 L -76.077 65.768 C -75.308 71.278 -73.944 76.135 -71.989 80.343 C -70.034 84.549 -67.576 88.104 -64.612 91.008 C -61.65 93.91 -58.244 96.103 -54.392 97.585 C -50.541 99.065 -46.304 99.807 -41.683 99.807 C -36.825 99.807 -32.292 98.947 -28.084 97.229 C -23.878 95.51 -20.25 93.199 -17.197 90.297 C -14.146 87.393 -11.747 84.031 -9.999 80.21 C -8.252 76.388 -7.377 72.374 -7.377 68.167 C -7.377 62.064 -8.799 55.96 -11.643 49.859 C -15.969 40.318 -23.079 30.158 -32.973 19.375 C -40.38 11.256 -46.379 4.784 -50.97 -.044 C -55.563 -4.875 -58.777 -8.119 -60.613 -9.776 L -29.151 -9.776 C -25.183 -9.776 -21.834 -9.688 -19.108 -9.51 C -16.384 -9.332 -14.073 -8.903 -12.176 -8.221 C -10.281 -7.541 -8.652 -6.563 -7.288 -5.288 C -5.926 -4.015 -4.593 -2.253 -3.289 0 Z " fill="#04358c"/>
<path transform="matrix(1,0,0,-1,269.2998,255.5591)" d="M 0 0 L -8.443 -23.196 L -79.543 -23.196 L -79.543 -19.908 C -69.056 -10.31 -60.14 -1.644 -52.792 6.088 C -45.446 13.82 -39.639 20.737 -35.373 26.84 C -26.84 38.927 -22.575 49.977 -22.575 59.991 C -22.575 63.782 -23.212 67.292 -24.485 70.522 C -25.76 73.751 -27.478 76.521 -29.64 78.833 C -31.804 81.143 -34.337 82.95 -37.239 84.254 C -40.143 85.556 -43.193 86.209 -46.393 86.209 C -49.357 86.209 -52.186 85.778 -54.881 84.92 C -57.578 84.061 -60.066 82.772 -62.346 81.054 C -64.628 79.335 -66.657 77.202 -68.434 74.655 C -70.211 72.107 -71.665 69.145 -72.789 65.768 L -76.077 65.768 C -75.308 71.278 -73.944 76.135 -71.989 80.343 C -70.034 84.549 -67.576 88.104 -64.612 91.008 C -61.65 93.91 -58.244 96.103 -54.392 97.585 C -50.541 99.065 -46.304 99.807 -41.683 99.807 C -36.825 99.807 -32.293 98.947 -28.085 97.229 C -23.878 95.51 -20.25 93.199 -17.198 90.297 C -14.147 87.394 -11.747 84.032 -9.999 80.21 C -8.252 76.388 -7.377 72.374 -7.377 68.167 C -7.377 62.064 -8.799 55.96 -11.643 49.859 C -15.969 40.318 -23.079 30.158 -32.973 19.375 C -40.38 11.256 -46.379 4.784 -50.97 -.044 C -55.563 -4.875 -58.777 -8.119 -60.613 -9.776 L -29.151 -9.776 C -25.183 -9.776 -21.834 -9.688 -19.108 -9.51 C -16.384 -9.332 -14.073 -8.903 -12.176 -8.221 C -10.281 -7.541 -8.652 -6.563 -7.288 -5.288 C -5.926 -4.015 -4.593 -2.253 -3.289 0 Z " fill="#04358c"/>
<path transform="matrix(1,0,0,-1,401.3242,156)" d="M 0 0 L 0 -40.702 L -3.24 -40.702 C -4.713 -29.728 -8.296 -21.345 -13.999 -15.555 C -19.703 -9.766 -26.962 -6.87 -35.777 -6.87 C -38.803 -6.87 -41.567 -7.389 -44.073 -8.426 C -46.58 -9.462 -48.784 -10.824 -50.685 -12.509 C -52.586 -14.194 -54.055 -16.117 -55.092 -18.277 C -56.129 -20.438 -56.647 -22.684 -56.647 -25.018 C -56.647 -27.178 -56.216 -29.23 -55.351 -31.175 C -54.487 -33.119 -51.809 -36.165 -47.314 -40.313 C -39.796 -45.066 -33.1 -48.998 -27.221 -52.109 C -21.693 -55.134 -14.217 -59.714 -4.796 -65.849 C -.736 -68.96 2.375 -72.654 4.537 -76.932 C 6.694 -81.209 7.777 -85.682 7.777 -90.348 C 7.777 -94.755 6.87 -98.947 5.056 -102.922 C 3.24 -106.897 .713 -110.375 -2.527 -113.356 C -5.769 -116.338 -9.681 -118.715 -14.259 -120.486 C -18.842 -122.256 -23.851 -123.143 -29.295 -123.143 C -32.753 -123.143 -35.951 -122.884 -38.889 -122.365 C -39.407 -122.278 -40.768 -121.912 -42.972 -121.264 C -45.175 -120.615 -47.53 -119.946 -50.036 -119.254 C -52.543 -118.563 -54.876 -117.915 -57.036 -117.31 C -59.196 -116.706 -60.45 -116.403 -60.795 -116.403 C -62.265 -116.403 -63.41 -116.835 -64.23 -117.699 C -65.052 -118.563 -65.678 -120.378 -66.109 -123.143 L -69.35 -123.143 L -69.35 -82.7 L -66.109 -82.7 C -64.554 -90.996 -62.524 -97.348 -60.018 -101.755 C -58.808 -103.829 -57.188 -105.752 -55.156 -107.523 C -53.126 -109.295 -50.836 -110.851 -48.286 -112.19 C -45.737 -113.53 -42.994 -114.567 -40.055 -115.301 C -37.118 -116.036 -34.137 -116.403 -31.11 -116.403 C -27.48 -116.403 -24.222 -115.884 -21.323 -114.847 C -18.43 -113.81 -15.967 -112.406 -13.935 -110.634 C -11.907 -108.864 -10.352 -106.811 -9.269 -104.477 C -8.189 -102.144 -7.647 -99.681 -7.647 -97.088 C -7.647 -94.151 -8.449 -91.213 -10.046 -88.274 C -11.647 -85.337 -14.347 -82.441 -18.147 -79.589 C -21.865 -77.343 -26.272 -74.708 -31.369 -71.682 C -41.136 -66.065 -49.821 -60.664 -57.425 -55.479 C -61.66 -52.109 -64.878 -48.415 -67.082 -44.396 C -69.286 -40.378 -70.387 -35.906 -70.387 -30.98 C -70.387 -26.832 -69.524 -22.879 -67.795 -19.12 C -66.067 -15.36 -63.669 -12.055 -60.601 -9.203 C -57.533 -6.352 -53.882 -4.105 -49.647 -2.463 C -45.414 -.822 -40.833 0 -35.907 0 C -29.684 0 -23.073 -1.513 -16.073 -4.537 C -14.435 -5.229 -13.051 -5.79 -11.926 -6.222 C -10.805 -6.655 -9.897 -6.827 -9.203 -6.74 C -7.647 -6.74 -6.398 -6.309 -5.444 -5.444 C -4.495 -4.581 -3.759 -2.766 -3.24 0 Z " fill="#04358c"/>
<path transform="matrix(1,0,0,-1,447.3408,170.7773)" d="M 0 0 L 0 -26.054 L 18.536 -26.054 L 18.536 -32.146 L 0 -32.146 L 0 -83.737 C 0 -86.33 .194 -88.49 .583 -90.218 C .972 -91.947 1.532 -93.287 2.269 -94.237 C 3.002 -95.188 3.845 -95.857 4.796 -96.246 C 5.745 -96.635 6.782 -96.829 7.907 -96.829 C 9.893 -96.829 11.772 -96.246 13.546 -95.079 C 15.316 -93.913 16.678 -92.163 17.629 -89.83 L 20.999 -89.83 C 19.011 -95.533 16.159 -99.811 12.444 -102.662 C 8.727 -105.514 4.882 -106.94 .907 -106.94 C -3.674 -106.94 -7.347 -105.341 -10.11 -102.144 C -12.877 -98.947 -14.259 -93.459 -14.259 -85.682 L -14.259 -32.146 L -26.962 -32.146 L -26.962 -29.295 C -22.036 -27.395 -17.608 -24.132 -13.676 -19.508 C -9.745 -14.886 -6.093 -8.383 -2.722 0 Z " fill="#04358c"/>
<path transform="matrix(1,0,0,-1,509.8193,200.2017)" d="M 0 0 C -2.507 0 -4.926 -.541 -7.259 -1.621 C -9.592 -2.702 -11.666 -4.429 -13.48 -6.806 C -15.295 -9.183 -16.766 -12.271 -17.888 -16.074 C -19.013 -19.877 -19.573 -24.499 -19.573 -29.943 C -19.573 -35.561 -18.989 -40.94 -17.823 -46.082 C -16.656 -51.224 -14.994 -55.739 -12.832 -59.627 C -10.673 -63.516 -8.036 -66.627 -4.926 -68.96 C -1.814 -71.293 1.642 -72.46 5.444 -72.46 C 8.208 -72.46 10.78 -71.921 13.157 -70.84 C 15.532 -69.76 17.585 -68.01 19.314 -65.59 C 21.041 -63.171 22.402 -59.996 23.397 -56.063 C 24.391 -52.131 24.889 -47.313 24.889 -41.609 C 24.889 -35.906 24.326 -30.527 23.203 -25.471 C 22.078 -20.416 20.458 -16.009 18.342 -12.25 C 16.225 -8.491 13.632 -5.509 10.564 -3.306 C 7.495 -1.102 3.975 0 0 0 M 2.723 5.703 C 8.252 5.703 13.352 4.622 18.019 2.462 C 22.685 .302 26.724 -2.615 30.138 -6.287 C 33.55 -9.96 36.23 -14.281 38.175 -19.25 C 40.119 -24.219 41.091 -29.469 41.091 -34.999 C 41.091 -41.48 40.031 -47.4 37.915 -52.757 C 35.798 -58.116 32.925 -62.718 29.296 -66.563 C 25.666 -70.408 21.474 -73.39 16.722 -75.506 C 11.968 -77.623 7 -78.682 1.815 -78.682 C -3.629 -78.682 -8.664 -77.559 -13.286 -75.312 C -17.911 -73.065 -21.886 -70.042 -25.212 -66.238 C -28.54 -62.437 -31.133 -58.029 -32.989 -53.017 C -34.848 -48.005 -35.776 -42.733 -35.776 -37.202 C -35.776 -31.499 -34.783 -26.077 -32.795 -20.935 C -30.809 -15.793 -28.087 -11.235 -24.628 -7.259 C -21.173 -3.285 -17.11 -.13 -12.443 2.204 C -7.777 4.537 -2.722 5.703 2.723 5.703 " fill="#04358c"/>
<path transform="matrix(1,0,0,-1,585.7793,194.4985)" d="M 0 0 L 0 -17.888 C 6.74 -5.962 13.61 0 20.61 0 C 22.166 0 23.612 -.259 24.953 -.778 C 26.291 -1.296 27.457 -2.009 28.453 -2.917 C 29.445 -3.824 30.224 -4.861 30.786 -6.027 C 31.346 -7.194 31.629 -8.425 31.629 -9.722 C 31.629 -11.969 30.872 -13.87 29.36 -15.425 C 27.847 -16.98 26.055 -17.758 23.98 -17.758 C 23.029 -17.758 21.928 -17.457 20.675 -16.851 C 19.421 -16.247 18.213 -15.555 17.046 -14.777 C 15.879 -14 14.798 -13.309 13.806 -12.703 C 12.81 -12.099 12.056 -11.796 11.537 -11.796 C 9.981 -11.796 8.167 -13.049 6.093 -15.555 C 4.019 -18.062 1.986 -21.258 0 -25.147 L 0 -63.386 C 0 -65.719 .15 -67.837 .454 -69.738 C .755 -71.639 1.382 -73.26 2.333 -74.599 C 3.282 -75.939 4.687 -76.976 6.546 -77.709 C 8.402 -78.444 10.889 -78.812 14 -78.812 L 14 -81.922 L -26.832 -81.922 L -26.832 -78.812 C -24.239 -78.812 -22.145 -78.639 -20.545 -78.293 C -18.948 -77.948 -17.673 -77.256 -16.722 -76.219 C -15.772 -75.182 -15.124 -73.691 -14.777 -71.747 C -14.432 -69.803 -14.259 -67.232 -14.259 -64.034 L -14.259 -33.184 C -14.259 -28.517 -14.323 -24.845 -14.453 -22.166 C -14.583 -19.487 -14.735 -17.673 -14.906 -16.721 C -15.772 -13.266 -17.717 -11.537 -20.739 -11.537 C -21.691 -11.537 -22.643 -11.645 -23.592 -11.86 C -24.543 -12.077 -25.624 -12.401 -26.832 -12.833 L -27.609 -9.722 L -3.629 0 Z " fill="#04358c"/>
<path transform="matrix(1,0,0,-1,635.166,221.8491)" d="M 0 0 L 36.813 0 C 36.381 7.345 34.631 12.724 31.563 16.138 C 28.494 19.551 24.499 21.258 19.573 21.258 C 17.24 21.258 14.949 20.783 12.703 19.833 C 10.456 18.881 8.446 17.499 6.676 15.685 C 4.903 13.87 3.412 11.644 2.204 9.009 C .993 6.373 .26 3.37 0 0 M 0 -4.926 C 0 -10.889 .799 -16.203 2.398 -20.87 C 3.995 -25.536 6.113 -29.512 8.75 -32.795 C 11.384 -36.08 14.453 -38.585 17.953 -40.313 C 21.453 -42.042 25.147 -42.906 29.036 -42.906 C 34.221 -42.906 38.734 -41.48 42.582 -38.628 C 46.427 -35.776 49.646 -30.851 52.239 -23.851 L 54.961 -25.536 C 54.354 -29.425 53.146 -33.249 51.332 -37.008 C 49.517 -40.767 47.204 -44.137 44.396 -47.119 C 41.587 -50.1 38.325 -52.498 34.61 -54.313 C 30.893 -56.127 26.833 -57.035 22.426 -57.035 C 17.671 -57.035 13.199 -56.063 9.009 -54.118 C 4.817 -52.174 1.144 -49.409 -2.009 -45.822 C -5.164 -42.237 -7.671 -37.915 -9.527 -32.86 C -11.386 -27.804 -12.314 -22.123 -12.314 -15.814 C -12.314 -8.988 -11.365 -2.896 -9.462 2.463 C -7.562 7.82 -4.97 12.357 -1.685 16.073 C 1.598 19.789 5.466 22.598 9.917 24.499 C 14.365 26.399 19.185 27.351 24.37 27.351 C 28.777 27.351 32.837 26.594 36.555 25.083 C 40.27 23.57 43.489 21.409 46.211 18.601 C 48.934 15.792 51.072 12.4 52.628 8.426 C 54.184 4.45 54.961 0 54.961 -4.926 Z " fill="#04358c"/>
</g>
</g>
</g>
</svg>
