<?xml version="1.0" standalone="no"?>
<!DOCTYPE svg PUBLIC "-//W3C//DTD SVG 20010904//EN"
 "http://www.w3.org/TR/2001/REC-SVG-20010904/DTD/svg10.dtd">
<svg version="1.0" xmlns="http://www.w3.org/2000/svg"
 width="930.000000pt" height="698.000000pt" viewBox="0 0 930.000000 698.000000"
 preserveAspectRatio="xMidYMid meet">
<metadata>
Created by potrace 1.16, written by Peter Selinger 2001-2019
</metadata>
<g transform="translate(0.000000,698.000000) scale(0.100000,-0.100000)"
fill="#000000" stroke="none">
<path d="M3816 6899 c-409 -60 -708 -349 -826 -802 -16 -59 -32 -133 -35 -162
l-7 -55 53 0 54 0 29 72 c69 169 199 334 330 416 125 79 276 122 429 122 397
-1 707 -345 707 -786 0 -313 -162 -693 -467 -1097 -220 -291 -648 -740 -1131
-1186 l-112 -104 0 -53 0 -54 1073 0 1072 0 125 346 c69 190 127 349 128 355
2 5 -21 9 -51 9 l-54 0 -37 -55 c-74 -112 -156 -174 -275 -207 -97 -27 -343
-37 -905 -38 l-489 0 179 183 c183 187 562 594 719 772 300 341 520 683 619
963 67 190 89 444 52 606 -116 504 -633 835 -1180 755z"/>
<path d="M5366 4859 c-370 -43 -643 -252 -798 -611 -39 -89 -89 -268 -102
-360 l-7 -48 54 0 55 0 31 78 c80 198 227 363 400 448 118 58 209 78 351 78
111 0 134 -3 205 -28 193 -67 336 -194 424 -379 56 -116 72 -183 78 -332 18
-449 -229 -918 -825 -1569 -145 -158 -564 -572 -755 -746 l-115 -105 -1 -57
-1 -58 1069 0 1068 0 123 338 c67 185 125 343 127 350 4 9 -10 12 -51 12 l-55
0 -40 -59 c-51 -75 -122 -137 -191 -168 -117 -53 -146 -55 -830 -60 l-635 -5
120 124 c243 248 701 743 843 911 321 377 534 758 598 1067 24 115 25 339 1
433 -122 487 -612 808 -1141 746z"/>
<path d="M2600 571 c0 -5 14 -14 30 -20 l30 -10 0 -201 0 -200 -30 -6 c-62
-13 -26 -24 75 -24 63 0 105 4 105 10 0 6 -10 10 -23 10 -39 0 -47 18 -47 112
l0 88 100 0 100 0 0 -95 0 -95 -30 -6 c-62 -13 -26 -24 75 -24 63 0 105 4 105
10 0 6 -11 10 -24 10 -43 0 -47 15 -44 216 l3 189 33 14 c17 8 32 18 32 23 0
4 -47 8 -105 8 -106 0 -130 -9 -75 -29 l30 -10 0 -90 0 -91 -100 0 -101 0 3
88 3 87 33 14 c17 8 32 18 32 23 0 4 -47 8 -105 8 -58 0 -105 -4 -105 -9z"/>
<path d="M4630 565 c0 -8 8 -15 18 -15 11 0 26 -8 34 -17 8 -10 55 -111 104
-225 61 -143 93 -207 103 -205 9 1 50 87 99 207 83 203 103 240 129 240 7 0
13 7 13 15 0 12 -15 15 -75 15 -60 0 -75 -3 -75 -15 0 -8 6 -15 14 -15 38 0
35 -26 -20 -165 -31 -77 -59 -144 -63 -148 -11 -11 -134 280 -127 298 3 8 15
15 26 15 11 0 20 7 20 15 0 12 -18 15 -100 15 -82 0 -100 -3 -100 -15z"/>
<path d="M5720 500 c-7 -17 -28 -43 -46 -60 -40 -35 -43 -50 -9 -50 l25 0 0
-125 c0 -112 2 -127 20 -145 36 -36 88 -22 115 30 17 33 5 41 -21 15 -38 -37
-54 2 -54 132 l0 96 56 -6 c31 -3 61 -10 66 -15 5 -5 7 -60 6 -123 -3 -110 -4
-114 -25 -117 -13 -2 -23 -8 -23 -13 0 -5 38 -9 85 -9 47 0 85 4 85 9 0 5 -10
11 -22 13 -22 3 -23 8 -26 110 -3 104 -2 108 22 123 36 24 79 16 87 -15 9 -32
11 -183 3 -204 -3 -9 -15 -16 -25 -16 -10 0 -19 -4 -19 -10 0 -6 33 -10 80
-10 81 0 98 7 58 25 -22 9 -23 18 -28 130 -3 66 -9 127 -14 137 -4 9 -20 22
-36 28 -33 14 -80 2 -112 -27 -17 -15 -18 -15 -18 10 0 32 -11 33 -69 7 -52
-24 -51 -24 -51 -5 0 11 -11 15 -40 15 l-40 0 0 50 c0 57 -12 64 -30 20z"/>
<path d="M3185 427 c-41 -19 -57 -41 -53 -74 2 -22 9 -29 31 -31 24 -3 27 0
27 27 0 35 36 66 64 55 17 -7 36 -42 36 -67 0 -7 -29 -25 -64 -40 -90 -40
-111 -65 -107 -134 3 -57 78 -81 135 -43 30 19 30 19 43 -1 8 -10 23 -19 33
-19 23 0 80 47 80 66 0 19 -14 18 -31 -2 -12 -15 -14 -14 -20 7 -4 13 -7 70
-8 126 -1 96 -3 104 -24 118 -34 22 -106 28 -142 12z"/>
<path d="M3447 417 c-46 -21 -53 -37 -17 -37 21 0 30 -38 30 -131 0 -77 -12
-119 -35 -119 -8 0 -15 -4 -15 -10 0 -6 33 -10 80 -10 47 0 80 4 80 10 0 6 -9
10 -19 10 -26 0 -31 19 -31 119 0 79 2 90 23 109 30 28 73 29 87 2 6 -12 10
-63 8 -122 -3 -98 -4 -103 -25 -106 -13 -2 -23 -8 -23 -13 0 -5 36 -9 80 -9
75 0 105 11 60 23 -18 5 -20 14 -21 109 0 56 -5 119 -12 138 -22 64 -94 76
-150 24 l-27 -25 0 31 c0 36 -8 36 -73 7z"/>
<path d="M3864 421 c-81 -37 -116 -149 -75 -235 29 -59 73 -86 140 -86 44 0
56 5 90 36 142 127 13 364 -155 285z m105 -47 c41 -52 51 -158 21 -214 -27
-50 -99 -28 -127 37 -27 66 -16 170 21 195 24 17 65 8 85 -18z"/>
<path d="M4170 421 c-50 -21 -62 -38 -28 -43 22 -3 23 -7 26 -103 3 -120 -1
-145 -28 -145 -11 0 -20 -4 -20 -10 0 -6 33 -10 80 -10 75 0 105 11 60 23 -19
5 -20 14 -20 156 0 167 3 161 -70 132z"/>
<path d="M5198 418 c-52 -23 -60 -35 -25 -40 21 -3 22 -6 22 -123 0 -117 -1
-120 -22 -123 -13 -2 -23 -8 -23 -13 0 -5 38 -9 85 -9 47 0 85 4 85 9 0 5 -10
11 -22 13 -23 3 -23 6 -26 156 -2 112 -6 152 -15 152 -6 -1 -33 -10 -59 -22z"/>
<path d="M5455 433 c-62 -17 -105 -85 -105 -169 0 -58 20 -103 59 -137 61 -51
162 -27 198 47 9 19 13 42 9 51 -5 15 -10 12 -29 -15 -28 -42 -66 -56 -104
-38 -33 16 -73 73 -73 104 0 24 1 24 106 24 l107 0 -6 37 c-12 69 -90 116
-162 96z"/>
<path d="M6283 434 c-37 -9 -75 -51 -71 -82 3 -23 8 -27 33 -27 26 0 30 4 33
30 3 28 25 55 44 55 17 0 48 -41 48 -64 0 -19 -10 -28 -55 -46 -78 -32 -115
-68 -115 -114 0 -74 70 -107 137 -66 32 19 33 19 43 0 6 -11 21 -20 34 -20 32
0 76 37 76 63 0 16 -3 18 -12 9 -30 -30 -36 -13 -40 103 -3 99 -6 117 -23 135
-21 20 -90 33 -132 24z"/>
<path d="M6540 421 c-50 -21 -62 -38 -28 -43 23 -3 23 -5 23 -123 0 -117 -1
-120 -22 -123 -13 -2 -23 -8 -23 -13 0 -5 38 -9 85 -9 47 0 85 4 85 9 0 5 -10
11 -22 13 -22 3 -23 8 -26 110 l-3 108 33 20 c41 25 43 25 68 0 19 -19 20 -31
18 -128 -3 -102 -4 -107 -25 -110 -13 -2 -23 -8 -23 -13 0 -5 38 -9 85 -9 47
0 85 4 85 9 0 5 -10 11 -22 13 -22 3 -23 8 -26 110 l-3 108 33 20 c41 25 43
25 68 0 19 -19 20 -31 18 -123 -3 -95 -5 -103 -25 -112 -41 -18 -24 -25 57
-25 74 0 105 11 62 23 -24 6 -32 45 -32 154 0 99 -15 138 -59 148 -33 7 -88
-13 -110 -39 -13 -16 -16 -15 -37 11 -28 36 -85 38 -132 5 l-32 -23 0 25 c0
30 -9 31 -70 7z"/>
</g>
</svg>
