<?xml version="1.0" encoding="UTF-8"?>
<svg xmlns="http://www.w3.org/2000/svg" xmlns:xlink="http://www.w3.org/1999/xlink" width="535pt" height="250pt" viewBox="0 0 535 250" version="1.1">
<g id="surface1">
<path style=" stroke:none;fill-rule:nonzero;fill:rgb(1.568627%,20.784314%,54.901961%);fill-opacity:1;" d="M 136.78125 117.144531 L 131.507812 131.640625 L 87.070312 131.640625 L 87.070312 129.585938 C 93.621094 123.585938 99.195312 118.171875 103.789062 113.339844 C 108.378906 108.503906 112.007812 104.183594 114.675781 100.367188 C 120.007812 92.8125 122.675781 85.90625 122.675781 79.648438 C 122.675781 77.28125 122.273438 75.085938 121.480469 73.066406 C 120.683594 71.050781 119.609375 69.316406 118.257812 67.875 C 116.90625 66.429688 115.320312 65.300781 113.507812 64.484375 C 111.695312 63.671875 109.789062 63.261719 107.789062 63.261719 C 105.933594 63.261719 104.167969 63.53125 102.484375 64.066406 C 100.796875 64.605469 99.242188 65.410156 97.816406 66.484375 C 96.390625 67.558594 95.121094 68.890625 94.011719 70.484375 C 92.902344 72.078125 91.992188 73.925781 91.289062 76.039062 L 89.234375 76.039062 C 89.714844 72.59375 90.566406 69.558594 91.789062 66.929688 C 93.011719 64.300781 94.546875 62.078125 96.398438 60.261719 C 98.25 58.449219 100.378906 57.078125 102.789062 56.152344 C 105.195312 55.226562 107.84375 54.765625 110.730469 54.765625 C 113.765625 54.765625 116.601562 55.300781 119.230469 56.375 C 121.859375 57.449219 124.125 58.894531 126.035156 60.707031 C 127.941406 62.523438 129.441406 64.625 130.535156 67.011719 C 131.625 69.402344 132.171875 71.910156 132.171875 74.539062 C 132.171875 78.351562 131.285156 82.167969 129.507812 85.980469 C 126.800781 91.945312 122.359375 98.292969 116.175781 105.035156 C 111.546875 110.109375 107.796875 114.152344 104.925781 117.171875 C 102.054688 120.191406 100.046875 122.21875 98.898438 123.253906 L 118.5625 123.253906 C 121.042969 123.253906 123.136719 123.199219 124.839844 123.085938 C 126.542969 122.976562 127.988281 122.707031 129.171875 122.28125 C 130.355469 121.855469 131.375 121.246094 132.226562 120.449219 C 133.078125 119.652344 133.914062 118.550781 134.726562 117.144531 Z M 136.78125 117.144531 "/>
<path style=" stroke:none;fill-rule:nonzero;fill:rgb(1.568627%,20.784314%,54.901961%);fill-opacity:1;" d="M 168.3125 159.722656 L 163.035156 174.222656 L 118.597656 174.222656 L 118.597656 172.167969 C 125.152344 166.167969 130.726562 160.75 135.316406 155.917969 C 139.910156 151.085938 143.539062 146.765625 146.203125 142.949219 C 151.539062 135.394531 154.203125 128.488281 154.203125 122.230469 C 154.203125 119.859375 153.804688 117.667969 153.007812 115.648438 C 152.210938 113.628906 151.136719 111.898438 149.789062 110.453125 C 148.433594 109.011719 146.851562 107.878906 145.039062 107.066406 C 143.222656 106.25 141.316406 105.84375 139.316406 105.84375 C 137.464844 105.84375 135.695312 106.113281 134.011719 106.648438 C 132.324219 107.1875 130.769531 107.992188 129.347656 109.066406 C 127.917969 110.140625 126.652344 111.472656 125.542969 113.066406 C 124.429688 114.65625 123.523438 116.507812 122.820312 118.621094 L 120.765625 118.621094 C 121.246094 115.175781 122.097656 112.140625 123.320312 109.511719 C 124.542969 106.882812 126.078125 104.660156 127.929688 102.84375 C 129.78125 101.03125 131.910156 99.660156 134.316406 98.734375 C 136.722656 97.808594 139.371094 97.34375 142.261719 97.34375 C 145.296875 97.34375 148.128906 97.882812 150.757812 98.957031 C 153.386719 100.03125 155.65625 101.476562 157.5625 103.289062 C 159.46875 105.101562 160.96875 107.203125 162.0625 109.59375 C 163.15625 111.980469 163.703125 114.492188 163.703125 117.121094 C 163.703125 120.933594 162.8125 124.75 161.035156 128.5625 C 158.332031 134.527344 153.886719 140.875 147.703125 147.613281 C 143.074219 152.6875 139.324219 156.734375 136.457031 159.75 C 133.585938 162.769531 131.578125 164.796875 130.429688 165.835938 L 150.09375 165.835938 C 152.574219 165.835938 154.667969 165.78125 156.371094 165.667969 C 158.074219 165.558594 159.515625 165.289062 160.703125 164.863281 C 161.886719 164.4375 162.90625 163.828125 163.757812 163.03125 C 164.609375 162.234375 165.441406 161.132812 166.257812 159.722656 Z M 168.3125 159.722656 "/>
<path style=" stroke:none;fill-rule:nonzero;fill:rgb(1.568627%,20.784314%,54.901961%);fill-opacity:1;" d="M 250.828125 97.5 L 250.828125 122.9375 L 248.800781 122.9375 C 247.882812 116.078125 245.644531 110.839844 242.078125 107.222656 C 238.511719 103.605469 233.976562 101.792969 228.46875 101.792969 C 226.574219 101.792969 224.847656 102.117188 223.28125 102.765625 C 221.714844 103.414062 220.335938 104.265625 219.148438 105.316406 C 217.960938 106.371094 217.042969 107.574219 216.394531 108.921875 C 215.746094 110.273438 215.421875 111.675781 215.421875 113.136719 C 215.421875 114.484375 215.691406 115.769531 216.234375 116.984375 C 216.773438 118.199219 218.445312 120.101562 221.257812 122.695312 C 225.957031 125.667969 230.140625 128.125 233.816406 130.066406 C 237.269531 131.957031 241.941406 134.820312 247.832031 138.65625 C 250.367188 140.601562 252.3125 142.910156 253.664062 145.582031 C 255.011719 148.253906 255.6875 151.050781 255.6875 153.96875 C 255.6875 156.722656 255.121094 159.34375 253.988281 161.828125 C 252.851562 164.3125 251.273438 166.484375 249.25 168.347656 C 247.222656 170.210938 244.777344 171.695312 241.914062 172.804688 C 239.050781 173.910156 235.921875 174.464844 232.519531 174.464844 C 230.355469 174.464844 228.359375 174.300781 226.523438 173.976562 C 226.199219 173.921875 225.347656 173.695312 223.96875 173.289062 C 222.59375 172.882812 221.121094 172.464844 219.554688 172.035156 C 217.988281 171.601562 216.53125 171.195312 215.179688 170.820312 C 213.832031 170.441406 213.046875 170.25 212.832031 170.25 C 211.910156 170.25 211.195312 170.523438 210.683594 171.0625 C 210.171875 171.601562 209.777344 172.734375 209.507812 174.464844 L 207.484375 174.464844 L 207.484375 149.1875 L 209.507812 149.1875 C 210.480469 154.371094 211.75 158.34375 213.316406 161.097656 C 214.074219 162.394531 215.085938 163.59375 216.355469 164.703125 C 217.625 165.808594 219.054688 166.78125 220.648438 167.617188 C 222.242188 168.457031 223.957031 169.105469 225.792969 169.5625 C 227.628906 170.023438 229.492188 170.25 231.382812 170.25 C 233.652344 170.25 235.6875 169.925781 237.5 169.28125 C 239.308594 168.632812 240.847656 167.753906 242.117188 166.644531 C 243.386719 165.539062 244.359375 164.257812 245.035156 162.796875 C 245.710938 161.339844 246.046875 159.800781 246.046875 158.179688 C 246.046875 156.34375 245.546875 154.507812 244.550781 152.671875 C 243.546875 150.835938 241.859375 149.027344 239.484375 147.242188 C 237.160156 145.839844 234.40625 144.191406 231.222656 142.300781 C 225.117188 138.789062 219.691406 135.414062 214.9375 132.175781 C 212.289062 130.066406 210.277344 127.757812 208.902344 125.246094 C 207.523438 122.734375 206.835938 119.941406 206.835938 116.863281 C 206.835938 114.269531 207.375 111.800781 208.457031 109.449219 C 209.535156 107.101562 211.035156 105.035156 212.953125 103.25 C 214.871094 101.46875 217.152344 100.066406 219.796875 99.039062 C 222.445312 98.015625 225.308594 97.5 228.386719 97.5 C 232.273438 97.5 236.40625 98.445312 240.78125 100.335938 C 241.804688 100.769531 242.671875 101.117188 243.375 101.390625 C 244.074219 101.660156 244.640625 101.765625 245.074219 101.710938 C 246.046875 101.710938 246.828125 101.441406 247.425781 100.902344 C 248.019531 100.363281 248.476562 99.230469 248.800781 97.5 Z M 250.828125 97.5 "/>
<path style=" stroke:none;fill-rule:nonzero;fill:rgb(1.568627%,20.784314%,54.901961%);fill-opacity:1;" d="M 279.589844 106.734375 L 279.589844 123.019531 L 291.171875 123.019531 L 291.171875 126.828125 L 279.589844 126.828125 L 279.589844 159.070312 C 279.589844 160.691406 279.710938 162.042969 279.953125 163.121094 C 280.195312 164.203125 280.546875 165.039062 281.007812 165.632812 C 281.464844 166.226562 281.992188 166.644531 282.585938 166.890625 C 283.179688 167.132812 283.828125 167.253906 284.53125 167.253906 C 285.769531 167.253906 286.945312 166.890625 288.054688 166.160156 C 289.160156 165.429688 290.011719 164.335938 290.605469 162.878906 L 292.710938 162.878906 C 291.46875 166.445312 289.6875 169.117188 287.367188 170.898438 C 285.042969 172.683594 282.640625 173.574219 280.15625 173.574219 C 277.292969 173.574219 274.996094 172.574219 273.269531 170.574219 C 271.539062 168.578125 270.675781 165.148438 270.675781 160.285156 L 270.675781 126.828125 L 262.738281 126.828125 L 262.738281 125.046875 C 265.816406 123.859375 268.582031 121.816406 271.039062 118.929688 C 273.496094 116.039062 275.78125 111.976562 277.886719 106.734375 Z M 279.589844 106.734375 "/>
<path style=" stroke:none;fill-rule:nonzero;fill:rgb(1.568627%,20.784314%,54.901961%);fill-opacity:1;" d="M 318.636719 125.125 C 317.070312 125.125 315.558594 125.464844 314.101562 126.140625 C 312.640625 126.816406 311.347656 127.894531 310.210938 129.378906 C 309.078125 130.867188 308.160156 132.796875 307.457031 135.171875 C 306.753906 137.550781 306.402344 140.4375 306.402344 143.839844 C 306.402344 147.351562 306.769531 150.714844 307.496094 153.925781 C 308.226562 157.140625 309.265625 159.964844 310.617188 162.394531 C 311.964844 164.824219 313.613281 166.769531 315.558594 168.226562 C 317.503906 169.683594 319.664062 170.414062 322.039062 170.414062 C 323.765625 170.414062 325.375 170.078125 326.859375 169.402344 C 328.34375 168.726562 329.628906 167.632812 330.707031 166.121094 C 331.789062 164.609375 332.636719 162.625 333.261719 160.164062 C 333.882812 157.707031 334.191406 154.695312 334.191406 151.132812 C 334.191406 147.566406 333.839844 144.207031 333.140625 141.046875 C 332.4375 137.886719 331.421875 135.132812 330.101562 132.78125 C 328.777344 130.433594 327.15625 128.570312 325.238281 127.191406 C 323.320312 125.816406 321.121094 125.125 318.636719 125.125 M 320.339844 121.5625 C 323.792969 121.5625 326.980469 122.238281 329.898438 123.585938 C 332.816406 124.9375 335.339844 126.761719 337.472656 129.054688 C 339.605469 131.351562 341.28125 134.050781 342.496094 137.15625 C 343.710938 140.261719 344.320312 143.542969 344.320312 147 C 344.320312 151.050781 343.65625 154.75 342.332031 158.097656 C 341.011719 161.449219 339.214844 164.324219 336.945312 166.726562 C 334.679688 169.132812 332.058594 170.996094 329.089844 172.316406 C 326.117188 173.640625 323.011719 174.300781 319.769531 174.300781 C 316.367188 174.300781 313.222656 173.601562 310.332031 172.195312 C 307.441406 170.792969 304.957031 168.902344 302.878906 166.523438 C 300.800781 164.148438 299.179688 161.394531 298.019531 158.261719 C 296.855469 155.128906 296.277344 151.835938 296.277344 148.378906 C 296.277344 144.8125 296.898438 141.425781 298.140625 138.210938 C 299.382812 134.996094 301.082031 132.148438 303.246094 129.664062 C 305.402344 127.179688 307.941406 125.207031 310.859375 123.75 C 313.777344 122.289062 316.9375 121.5625 320.339844 121.5625 "/>
<path style=" stroke:none;fill-rule:nonzero;fill:rgb(1.568627%,20.784314%,54.901961%);fill-opacity:1;" d="M 366.113281 121.5625 L 366.113281 132.742188 C 370.324219 125.289062 374.617188 121.5625 378.992188 121.5625 C 379.964844 121.5625 380.871094 121.722656 381.707031 122.046875 C 382.542969 122.371094 383.273438 122.816406 383.894531 123.382812 C 384.515625 123.953125 385.003906 124.601562 385.351562 125.328125 C 385.703125 126.058594 385.878906 126.828125 385.878906 127.636719 C 385.878906 129.042969 385.40625 130.230469 384.460938 131.203125 C 383.515625 132.175781 382.394531 132.660156 381.097656 132.660156 C 380.503906 132.660156 379.816406 132.472656 379.035156 132.09375 C 378.25 131.714844 377.496094 131.285156 376.765625 130.796875 C 376.035156 130.3125 375.359375 129.878906 374.742188 129.5 C 374.117188 129.125 373.648438 128.933594 373.324219 128.933594 C 372.351562 128.933594 371.214844 129.71875 369.921875 131.285156 C 368.625 132.851562 367.351562 134.847656 366.113281 137.277344 L 366.113281 161.179688 C 366.113281 162.636719 366.207031 163.960938 366.394531 165.148438 C 366.582031 166.335938 366.976562 167.347656 367.570312 168.1875 C 368.164062 169.023438 369.042969 169.671875 370.203125 170.128906 C 371.363281 170.589844 372.917969 170.820312 374.863281 170.820312 L 374.863281 172.761719 L 349.34375 172.761719 L 349.34375 170.820312 C 350.960938 170.820312 352.269531 170.710938 353.269531 170.496094 C 354.269531 170.277344 355.066406 169.847656 355.660156 169.199219 C 356.253906 168.550781 356.660156 167.617188 356.875 166.402344 C 357.09375 165.1875 357.199219 163.582031 357.199219 161.582031 L 357.199219 142.300781 C 357.199219 139.382812 357.160156 137.089844 357.078125 135.414062 C 356.996094 133.742188 356.902344 132.605469 356.796875 132.011719 C 356.253906 129.851562 355.039062 128.773438 353.148438 128.773438 C 352.554688 128.773438 351.960938 128.839844 351.367188 128.972656 C 350.773438 129.109375 350.097656 129.3125 349.34375 129.582031 L 348.855469 127.636719 L 363.84375 121.5625 Z M 366.113281 121.5625 "/>
<path style=" stroke:none;fill-rule:nonzero;fill:rgb(1.568627%,20.784314%,54.901961%);fill-opacity:1;" d="M 396.980469 138.65625 L 419.988281 138.65625 C 419.71875 134.066406 418.625 130.703125 416.707031 128.570312 C 414.789062 126.4375 412.289062 125.371094 409.210938 125.371094 C 407.753906 125.371094 406.320312 125.667969 404.917969 126.261719 C 403.515625 126.855469 402.257812 127.71875 401.152344 128.851562 C 400.042969 129.988281 399.109375 131.378906 398.355469 133.023438 C 397.597656 134.671875 397.140625 136.550781 396.980469 138.65625 M 396.980469 141.734375 C 396.980469 145.460938 397.476562 148.78125 398.476562 151.699219 C 399.476562 154.617188 400.800781 157.101562 402.449219 159.152344 C 404.09375 161.207031 406.011719 162.769531 408.199219 163.851562 C 410.386719 164.933594 412.695312 165.472656 415.125 165.472656 C 418.367188 165.472656 421.1875 164.582031 423.59375 162.796875 C 425.996094 161.015625 428.007812 157.9375 429.628906 153.5625 L 431.328125 154.617188 C 430.949219 157.046875 430.195312 159.4375 429.0625 161.785156 C 427.925781 164.136719 426.480469 166.242188 424.726562 168.105469 C 422.96875 169.96875 420.933594 171.46875 418.609375 172.601562 C 416.285156 173.734375 413.75 174.300781 410.996094 174.300781 C 408.023438 174.300781 405.226562 173.695312 402.609375 172.480469 C 399.988281 171.265625 397.695312 169.535156 395.722656 167.292969 C 393.75 165.054688 392.183594 162.351562 391.023438 159.191406 C 389.863281 156.03125 389.28125 152.484375 389.28125 148.539062 C 389.28125 144.273438 389.875 140.464844 391.066406 137.117188 C 392.253906 133.769531 393.871094 130.933594 395.925781 128.609375 C 397.976562 126.289062 400.394531 124.53125 403.175781 123.34375 C 405.957031 122.15625 408.96875 121.5625 412.210938 121.5625 C 414.964844 121.5625 417.5 122.035156 419.824219 122.980469 C 422.148438 123.925781 424.160156 125.273438 425.859375 127.03125 C 427.5625 128.785156 428.898438 130.90625 429.871094 133.390625 C 430.84375 135.875 431.328125 138.65625 431.328125 141.734375 Z M 396.980469 141.734375 "/>
</g>
</svg>
